<?xml version="1.0" encoding="UTF-8"?>
<svg version="1.1" xmlns="http://www.w3.org/2000/svg" width="1440" height="298">
<path d="M0 0 C56.1 0 112.2 0 170 0 C170.99 2.475 170.99 2.475 172 5 C172.99 5.66 173.98 6.32 175 7 C175.33 7.99 175.66 8.98 176 10 C176.515625 10.515625 177.03125 11.03125 177.5625 11.5625 C178.036875 12.036875 178.51125 12.51125 179 13 C179 13.66 179 14.32 179 15 C179.639375 15.268125 180.27875 15.53625 180.9375 15.8125 C183 17 183 17 184 20 C184.66 20 185.32 20 186 20 C186.556875 21.051875 187.11375 22.10375 187.6875 23.1875 C189.66171156 26.68305739 192.12018103 29.200176 195 32 C195 32.66 195 33.32 195 34 C195.66 34 196.32 34 197 34 C197.99 36.475 197.99 36.475 199 39 C199.66 39 200.32 39 201 39 C203.625 41.375 203.625 41.375 206 44 C206 44.66 206 45.32 206 46 C206.66 46 207.32 46 208 46 C208 47.32 208 48.64 208 50 C208.66 50 209.32 50 210 50 C210 50.99 210 51.98 210 53 C210.99 53.33 211.98 53.66 213 54 C213 54.66 213 55.32 213 56 C213.66 56 214.32 56 215 56 C215 56.66 215 57.32 215 58 C215.66 58 216.32 58 217 58 C219.29648649 60.5614657 220 61.47967572 220 65 C220.66 65 221.32 65 222 65 C222 65.66 222 66.32 222 67 C222.66 67 223.32 67 224 67 C226.97717579 69.45019161 229.53065204 72.269206 230.55269694 76.03815639 C230.75338554 78.32894478 230.7717275 80.55306854 230.7215271 82.85215759 C230.72923126 84.1504525 230.72923126 84.1504525 230.73709106 85.47497559 C230.74698916 88.3720208 230.71394457 91.26696479 230.68115234 94.16381836 C230.67931361 96.2772671 230.68011652 98.39071953 230.68334389 100.5041666 C230.68469712 106.15819534 230.64995196 111.81146043 230.60768127 117.46530914 C230.57348229 122.77283607 230.57190105 128.08017835 230.56762695 133.38781738 C230.53615731 148.90447919 230.45239017 164.42099927 230.375 179.9375 C230.25125 214.608125 230.1275 249.27875 230 285 C154.1 285 78.2 285 0 285 C0 219.33 0 153.66 0 86 C-6.93 86 -13.86 86 -21 86 C-21.99 85.34 -22.98 84.68 -24 84 C-24.38095093 81.68493652 -24.38095093 81.68493652 -24.38818359 78.75585938 C-24.39764008 77.66132446 -24.40709656 76.56678955 -24.4168396 75.43908691 C-24.41076691 74.25262573 -24.40469421 73.06616455 -24.3984375 71.84375 C-24.40130768 70.63054077 -24.40417786 69.41733154 -24.40713501 68.1673584 C-24.40917952 65.59838393 -24.40362281 63.02939404 -24.39111328 60.46044922 C-24.37506611 56.51624925 -24.39095004 52.57307415 -24.41015625 48.62890625 C-24.40817389 46.13801856 -24.40433036 43.64713151 -24.3984375 41.15625 C-24.40451019 39.96978882 -24.41058289 38.78332764 -24.4168396 37.56091309 C-24.40738312 36.46637817 -24.39792664 35.37184326 -24.38818359 34.24414062 C-24.38579681 33.27754517 -24.38341003 32.31094971 -24.38095093 31.31506348 C-24.25523712 30.55109253 -24.12952332 29.78712158 -24 29 C-20.74610012 26.83073341 -19.86604043 26.75919951 -16.11328125 26.8046875 C-15.26805908 26.80968262 -14.42283691 26.81467773 -13.55200195 26.81982422 C-12.48296631 26.83803223 -11.41393066 26.85624023 -10.3125 26.875 C-5.2078125 26.936875 -5.2078125 26.936875 0 27 C0 18.09 0 9.18 0 0 Z " fill="#FDFDFE" transform="translate(26,3)"/>
<path d="M0 0 C11.99783334 11.52123547 18.14818116 29.32618738 18.5 45.84765625 C19.04626112 77.98966052 9.3359854 100.69737502 -12.73828125 124.171875 C-13.26421875 124.76226562 -13.79015625 125.35265625 -14.33203125 125.9609375 C-33.6827808 146.79261176 -67.34800557 161.52449946 -95.67578125 162.734375 C-98.14453125 162.56640625 -98.14453125 162.56640625 -100.73828125 162.171875 C-101.84171875 162.01074219 -102.94515625 161.84960938 -104.08203125 161.68359375 C-114.25399756 159.52757915 -120.68111912 154.38301603 -126.73828125 146.171875 C-129.09264248 142.28763701 -130.98648485 138.3560218 -132.73828125 134.171875 C-133.39842006 132.83529766 -134.06399608 131.5013718 -134.73828125 130.171875 C-135.88941406 130.78933594 -137.04054688 131.40679687 -138.2265625 132.04296875 C-184.14024772 156.53124142 -184.14024772 156.53124142 -199.73828125 154.171875 C-204.21775355 152.08660341 -206.96076832 149.81315875 -208.73828125 145.171875 C-209.77293616 137.27784123 -208.07003862 131.27030853 -204.73828125 124.171875 C-212.8717847 126.30071691 -220.88521564 128.70775948 -228.86328125 131.359375 C-229.97832031 131.70806641 -231.09335937 132.05675781 -232.2421875 132.41601562 C-238.99644455 134.67936796 -243.55782946 137.27179277 -248.66015625 142.23413086 C-251.83574988 145.19520777 -255.40363329 147.24739122 -259.17578125 149.359375 C-259.91513916 149.78009277 -260.65449707 150.20081055 -261.41625977 150.63427734 C-262.86932825 151.45609607 -264.32550381 152.27245238 -265.78515625 153.08251953 C-267.43874164 154.00480678 -269.07499098 154.95807138 -270.70703125 155.91796875 C-276.23671084 159.00653979 -281.40138616 160.61003559 -287.73828125 159.171875 C-291.59983775 156.17719853 -293.48635854 153.93533397 -294.17578125 149.109375 C-293.41688651 142.27932238 -290.12829178 138.18855055 -284.9375 133.80859375 C-275.84456469 127.20261511 -266.11486312 122.38168131 -255.11328125 119.796875 C-252.33274253 119.03188329 -251.07613765 118.57162876 -249.203125 116.35546875 C-247.57296616 113.35487128 -246.51985613 111.34973758 -247.15625 107.91796875 C-247.34832031 107.34175781 -247.54039062 106.76554687 -247.73828125 106.171875 C-260.82756452 106.46274796 -271.48912934 118.86652336 -280.10009766 127.55493164 C-281.76562355 129.20704825 -283.46339506 130.82782433 -285.203125 132.40161133 C-291.85626651 138.56273042 -295.35028243 144.51959555 -298.73828125 152.859375 C-299.54427858 154.76026981 -300.35942914 156.65708594 -301.17485046 158.55395508 C-301.75706595 159.90973373 -302.3365311 161.26669638 -302.91340637 162.62475586 C-306.34157274 170.67090597 -310.05107062 178.58526652 -313.74530029 186.51177979 C-319.92491028 199.78255693 -326.01608073 213.08316356 -331.79296875 226.53515625 C-332.1187793 227.29135254 -332.44458984 228.04754883 -332.78027344 228.82666016 C-333.46651145 230.50657922 -334.10230556 232.20744871 -334.70410156 233.91943359 C-335.02733398 234.82129395 -335.35056641 235.7231543 -335.68359375 236.65234375 C-335.95961426 237.46985107 -336.23563477 238.2873584 -336.52001953 239.12963867 C-338.13456881 241.83619272 -339.78675439 242.27888164 -342.73828125 243.171875 C-346.2392469 240.9607388 -347.6046154 239.51819107 -349.11328125 235.609375 C-351.0995619 225.17452555 -347.63351317 216.63624124 -343.17578125 207.359375 C-341.98156711 204.80115869 -340.80134852 202.23655604 -339.62109375 199.671875 C-339.30922623 198.9977507 -338.9973587 198.3236264 -338.67604065 197.6290741 C-334.76153564 189.12743954 -331.16165603 180.4931895 -327.55078125 171.859375 C-326.86973817 170.23444469 -326.18866741 168.60952599 -325.50756836 166.98461914 C-323.88167031 163.10221484 -322.25971892 159.21817767 -320.63970947 155.33331299 C-319.77918232 153.26994729 -318.91784105 151.20692381 -318.05615234 149.14404297 C-315.27671541 142.48948146 -312.5026242 135.83272195 -309.73828125 129.171875 C-312.55738161 130.50108004 -315.00660107 131.99818788 -317.50390625 133.859375 C-318.22175293 134.38877686 -318.93959961 134.91817871 -319.67919922 135.46362305 C-320.82219482 136.30920776 -320.82219482 136.30920776 -321.98828125 137.171875 C-348.86694598 156.83550914 -348.86694598 156.83550914 -357.7109375 156.5390625 C-361.33861976 155.88202564 -363.58021098 154.00475981 -365.73828125 151.171875 C-369.69448524 144.57354185 -369.04851645 137.57159236 -367.33544922 130.30419922 C-363.49699327 116.59811817 -357.46142568 102.70528146 -347.73828125 92.171875 C-344.88503688 90.74525281 -342.90373576 90.86153632 -339.73828125 91.171875 C-335.59094735 93.73927218 -333.08173583 96.91893891 -330.73828125 101.171875 C-330.4140625 103.6875 -330.4140625 103.6875 -330.73828125 106.171875 C-332.20703125 107.62890625 -332.20703125 107.62890625 -334.23828125 108.984375 C-341.91674173 115.15993396 -345.89337989 125.96186605 -348.73828125 135.171875 C-344.47487911 133.85122919 -340.62685578 132.21627165 -336.66796875 130.16015625 C-335.52328125 129.56654297 -334.37859375 128.97292969 -333.19921875 128.36132812 C-332.31314941 127.89738647 -332.31314941 127.89738647 -331.40917969 127.42407227 C-329.64156309 126.49917337 -327.8696379 125.58252391 -326.09765625 124.66601562 C-319.28847174 121.12051743 -312.63903313 117.41757249 -306.07080078 113.44604492 C-303.73828125 112.171875 -303.73828125 112.171875 -301.73828125 112.171875 C-301.53203125 111.40875 -301.32578125 110.645625 -301.11328125 109.859375 C-295.87492093 95.81104504 -295.87492093 95.81104504 -289.73828125 92.171875 C-285.48298631 91.62026269 -283.33310446 91.84530539 -279.55078125 93.921875 C-277.09372229 95.88752217 -274.93720774 97.93057091 -272.73828125 100.171875 C-272.09761719 99.62917969 -271.45695313 99.08648437 -270.796875 98.52734375 C-260.21578445 89.77547303 -251.52604275 87.23682336 -237.73828125 88.171875 C-232.63883009 89.29040746 -229.58196736 91.79697329 -226.73828125 96.171875 C-225.61777974 99.53337952 -225.60531473 102.13474226 -225.61328125 105.671875 C-225.61070312 106.8165625 -225.608125 107.96125 -225.60546875 109.140625 C-225.73828125 112.171875 -225.73828125 112.171875 -226.73828125 115.171875 C-226.12831299 115.16663818 -225.51834473 115.16140137 -224.88989258 115.15600586 C-222.1101994 115.13514165 -219.33052274 115.12218487 -216.55078125 115.109375 C-215.1112207 115.09680664 -215.1112207 115.09680664 -213.64257812 115.08398438 C-212.71123047 115.08076172 -211.77988281 115.07753906 -210.8203125 115.07421875 C-209.96671143 115.06898193 -209.11311035 115.06374512 -208.23364258 115.05834961 C-205.64581378 115.17608177 -203.26166172 115.60080456 -200.73828125 116.171875 C-200.12082031 115.32625 -199.50335937 114.480625 -198.8671875 113.609375 C-190.61316093 102.47695382 -181.4846813 91.48254279 -166.98828125 89.171875 C-162.78675982 88.93558557 -160.23023524 89.68870772 -156.73828125 92.171875 C-151.498821 97.15449896 -148.4208732 102.41761925 -147.11328125 109.609375 C-148.21351668 115.88071694 -152.29489256 119.34783059 -157.265625 123.05859375 C-165.40079906 128.43924689 -173.85676055 133.78777972 -183.86328125 133.640625 C-186.21810723 133.05191851 -187.18708558 131.99452991 -188.73828125 130.171875 C-189.32898139 132.11790774 -189.32898139 132.11790774 -189.73828125 134.171875 C-188.14506848 135.76508777 -186.50556317 135.36138842 -184.30078125 135.390625 C-178.80506309 135.32817366 -173.97955411 134.24929223 -168.73828125 132.671875 C-167.83907959 132.40922852 -166.93987793 132.14658203 -166.01342773 131.87597656 C-158.22011919 129.50710653 -150.87702259 126.38588622 -143.5234375 122.90625 C-140.33145322 121.39979402 -137.11722454 120.20829579 -133.73828125 119.171875 C-133.7846875 118.635625 -133.83109375 118.099375 -133.87890625 117.546875 C-135.07602666 91.55226038 -118.75281616 65.69440212 -101.94433594 47.19775391 C-86.64988405 30.80747457 -69.20587612 18.98012178 -49.75952148 8.0390625 C-46.32243226 6.10326927 -42.99128071 4.05709957 -39.67578125 1.921875 C-27.67597342 -5.33336301 -11.45968928 -9.72808937 0 0 Z M-75.73828125 49.171875 C-76.52332031 49.9453125 -77.30835938 50.71875 -78.1171875 51.515625 C-88.29703296 62.15074083 -95.98457498 74.98214757 -102.36328125 88.171875 C-102.98384399 89.44285034 -102.98384399 89.44285034 -103.61694336 90.73950195 C-109.02735106 102.37193542 -110.40747274 114.30059336 -106.11328125 126.609375 C-104.03320286 131.27057257 -101.13645372 134.55804882 -96.73828125 137.171875 C-84.39704239 140.80695422 -69.02993334 138.53473086 -57.828125 132.640625 C-56.16969655 131.64410245 -54.53000682 130.61486646 -52.921875 129.5390625 C-50.73828125 128.171875 -50.73828125 128.171875 -48.1953125 127.17578125 C-29.90314054 119.70187315 -17.94110164 92.29483909 -10.73828125 75.171875 C-5.50218924 61.77102935 -2.56192055 46.74636037 -7.55859375 32.8984375 C-9.71510849 28.02362686 -12.39071907 25.22441866 -16.73828125 22.171875 C-39.78966626 14.48808 -60.80233024 34.19880945 -75.73828125 49.171875 Z M-174.36328125 112.671875 C-175.14703125 113.496875 -175.93078125 114.321875 -176.73828125 115.171875 C-173.08511454 113.92210744 -171.95762289 113.50088747 -169.73828125 110.171875 C-172.10106861 109.94198994 -172.10106861 109.94198994 -174.36328125 112.671875 Z " fill="#0054FF" transform="translate(876.73828125,33.828125)"/>
<path d="M0 0 C4.12369948 2.06184974 6.01854398 3.91961388 9.0625 7.3125 C9.91972656 8.25738281 10.77695313 9.20226563 11.66015625 10.17578125 C13.75069067 12.69908073 15.33883242 15.19060327 17 18 C18.45833358 19.62514468 18.45833358 19.62514468 20 21 C22.55673041 23.45597256 24.21841819 25.92272232 26 29 C26.721875 29.70125 27.44375 30.4025 28.1875 31.125 C30 33 30 33 30 36 C30.86818359 36.34611328 30.86818359 36.34611328 31.75390625 36.69921875 C34.5637803 38.32650233 35.98137981 40.22887195 37.9375 42.8125 C40.14277926 45.66542633 42.25772576 48.25772576 44.8125 50.8125 C47.44159728 53.44159728 50 56.13451501 50 60 C50.928125 60.37125 50.928125 60.37125 51.875 60.75 C54.35068687 62.20628639 54.95125002 63.37812506 56 66 C56.66 66 57.32 66 58 66 C58 66.99 58 67.98 58 69 C58.66 69 59.32 69 60 69 C60 138.3 60 207.6 60 279 C-15.24 279 -90.48 279 -168 279 C-168 212.67 -168 146.34 -168 78 C-175.26 77.67 -182.52 77.34 -190 77 C-190 59.84 -190 42.68 -190 25 C-182.08 25 -174.16 25 -166 25 C-165.67 24.01 -165.34 23.02 -165 22 C-119.46 22 -73.92 22 -27 22 C-25.73971048 24.52057903 -25.87300808 26.25558581 -25.87060547 29.07641602 C-25.86745331 30.13413712 -25.86430115 31.19185822 -25.86105347 32.28163147 C-25.86408981 34.00040749 -25.86408981 34.00040749 -25.8671875 35.75390625 C-25.86623077 36.92509506 -25.86527405 38.09628387 -25.86428833 39.30296326 C-25.86360692 41.78197279 -25.86545847 44.26098411 -25.86962891 46.73999023 C-25.87498245 50.55000788 -25.86968008 54.35990789 -25.86328125 58.16992188 C-25.86394194 60.57291693 -25.86522293 62.97591191 -25.8671875 65.37890625 C-25.86516327 66.52678116 -25.86313904 67.67465607 -25.86105347 68.85731506 C-25.86578171 70.43916847 -25.86578171 70.43916847 -25.87060547 72.05297852 C-25.87140106 72.9862648 -25.87219666 73.91955109 -25.87301636 74.88111877 C-26 77 -26 77 -27 78 C-28.77122886 78.10854981 -30.54678859 78.14687445 -32.32130432 78.15821838 C-33.47300645 78.16799241 -34.62470858 78.17776644 -35.81131077 78.18783665 C-37.09117831 78.1936069 -38.37104586 78.19937716 -39.68969727 78.20532227 C-41.06150839 78.2150316 -42.43331649 78.22517673 -43.80512142 78.23572445 C-47.49089883 78.26285277 -51.17668824 78.28398763 -54.86251068 78.30391693 C-58.31652898 78.32349061 -61.7705003 78.34842145 -65.2244873 78.3729248 C-75.33712297 78.44152308 -85.44981577 78.50147921 -95.5625 78.5625 C-129.4390625 78.7790625 -129.4390625 78.7790625 -164 79 C-164 143.35 -164 207.7 -164 274 C-90.74 274.33 -17.48 274.66 58 275 C57.855625 241.360625 57.71125 207.72125 57.5625 173.0625 C57.51939697 162.42136963 57.47629395 151.78023926 57.43188477 140.81665039 C57.38865507 131.31908108 57.38865507 131.31908108 57.34410095 121.82151794 C57.32421529 117.57490192 57.30714344 113.32828436 57.29173279 109.08164978 C57.27202466 103.67570995 57.24761179 98.26981116 57.21969402 92.86390769 C57.21023214 90.87312683 57.2024665 88.88233706 57.19653046 86.89154255 C57.18831649 84.21594393 57.17407359 81.540446 57.15821838 78.86488342 C57.1572412 78.07426734 57.15626402 77.28365126 57.15525723 76.46907711 C57.45174219 72.94050185 57.45174219 72.94050185 56 70 C54.25161165 69.8768483 52.49835496 69.82212189 50.74584961 69.79467773 C49.60901733 69.77449585 48.47218506 69.75431396 47.30090332 69.73352051 C46.09687866 69.71704468 44.892854 69.70056885 43.65234375 69.68359375 C42.55249146 69.66494263 41.45263916 69.6462915 40.31945801 69.6270752 C36.19222408 69.55853158 32.06485171 69.49854031 27.9375 69.4375 C18.718125 69.293125 9.49875 69.14875 0 69 C0 46.23 0 23.46 0 0 Z " fill="#0132FF" transform="translate(194,9)"/>
<path d="M0 0 C6.34743313 2.32441213 11.52947869 5.10011378 15 11 C15.84383243 13.91610119 16.03082877 16.11727535 15 19 C13.27084277 20.64269937 11.54989136 21.63150009 9.43188477 22.72338867 C1.83197182 26.71294241 -3.64216237 31.23695087 -8.75 38.125 C-9.33346191 38.89183105 -9.91692383 39.65866211 -10.51806641 40.44873047 C-17.15620304 49.30849434 -23.12557681 58.62277846 -29 68 C-26.33311371 67.85756403 -23.66654233 67.71113422 -21 67.5625 C-20.25621094 67.52318359 -19.51242187 67.48386719 -18.74609375 67.44335938 C-15.05637768 67.23481021 -11.4070862 66.95408793 -7.7421875 66.47265625 C-4.81820566 66.1033433 -2.06338837 65.8645431 0.875 65.875 C1.98488281 65.87113281 1.98488281 65.87113281 3.1171875 65.8671875 C5 66 5 66 7 67 C6.41116251 70.97465309 4.78913621 73.14283607 2 76 C-4.95324926 81.07583824 -11.6645921 83.30055827 -20.0625 84.8125 C-21.08666016 85.01552734 -22.11082031 85.21855469 -23.16601562 85.42773438 C-29.09489676 86.57562638 -34.99000744 87.41838782 -41 88 C-41.28109619 88.88494141 -41.56219238 89.76988281 -41.85180664 90.68164062 C-42.86756294 93.61724762 -44.01356162 96.30510533 -45.37109375 99.09375 C-52.74903965 114.49473502 -59.51713728 130.10316279 -66.0625 145.875 C-66.47700409 146.86636963 -66.89150818 147.85773926 -67.318573 148.87915039 C-72.91950627 162.29508448 -78.36078968 175.49587328 -80.3125 190.01171875 C-81.2466657 192.71336842 -82.57493004 193.56192904 -85 195 C-88.75771449 195.5596596 -90.46352523 195.31700782 -93.75 193.375 C-98.56383516 188.29372955 -98.40510199 182.08077615 -98.28564453 175.43066406 C-97.82789455 169.93296945 -96.28029837 165.05147182 -94.4375 159.875 C-94.04691406 158.74191406 -93.65632812 157.60882813 -93.25390625 156.44140625 C-85.33237329 134.09308146 -75.47233961 112.25686278 -65 91 C-65.763125 91.061875 -66.52625 91.12375 -67.3125 91.1875 C-68.199375 91.125625 -69.08625 91.06375 -70 91 C-70.63446045 90.2562915 -70.63446045 90.2562915 -71.28173828 89.49755859 C-73.86024069 87.25025342 -75.81753856 87.69095183 -79.1796875 87.8515625 C-92.79187164 88.79705288 -92.79187164 88.79705288 -104.36230469 95.23925781 C-108.63250602 101.4178534 -110.99504513 108.50009108 -113.41259766 115.5546875 C-115.16408045 120.58808599 -117.23533101 125.4739579 -119.32421875 130.375 C-120.09554058 132.18970938 -120.86669874 134.00448834 -121.63769531 135.81933594 C-122.02042603 136.72002808 -122.40315674 137.62072021 -122.79748535 138.54870605 C-125.62226317 145.24208954 -128.34606761 151.9774515 -131.07293701 158.71118164 C-131.68589799 160.22451607 -132.30001447 161.73738304 -132.91534424 163.24975586 C-133.76022077 165.32681919 -134.60146111 167.40531339 -135.44140625 169.484375 C-136.15018921 171.23572754 -136.15018921 171.23572754 -136.87329102 173.02246094 C-139.03915511 178.7461616 -139.99099738 184.02700786 -138 190 C-137.625 193.5 -137.625 193.5 -138 197 C-140.7559587 199.5889309 -142.70073722 199.96191201 -146.4375 200.4375 C-150.71381679 199.91233829 -152.71769265 198.76012209 -156 196 C-160.00716697 190.61105132 -160.19175737 185.55399297 -160 179 C-154.83287741 150.12915419 -139.56578969 122.20336733 -127 96 C-128.42699219 95.58427734 -128.42699219 95.58427734 -129.8828125 95.16015625 C-133 94 -133 94 -134.875 91.4375 C-136.23483105 87.28246068 -136.84178539 83.33271891 -136 79 C-134.07833555 76.54453987 -133.03468873 76.01156291 -130 75 C-127.60509014 74.93029948 -125.20832309 74.91551997 -122.8125 74.9375 C-121.54019531 74.94652344 -120.26789062 74.95554687 -118.95703125 74.96484375 C-117.98121094 74.97644531 -117.00539063 74.98804688 -116 75 C-115.77054688 74.22011719 -115.54109375 73.44023437 -115.3046875 72.63671875 C-108.53004592 53.75291242 -93.07729051 19.53864525 -74 10 C-66.25526661 9.17020714 -60.34358598 11.55039592 -54.25390625 16.38671875 C-52.29521085 18.4119987 -51.06904414 20.22274715 -50.81689453 23.0612793 C-50.87792969 25.04085286 -50.93896484 27.02042643 -51 29 C-52.34191406 29.67482422 -52.34191406 29.67482422 -53.7109375 30.36328125 C-71.5003623 39.66555476 -81.33075479 55.93783788 -91 73 C-70.75397448 74.32148963 -70.75397448 74.32148963 -52.40869141 68.02099609 C-48.56506485 62.93828543 -46.83065126 57.04175664 -45.02392578 50.99658203 C-43.34687529 46.08859019 -40.68928919 41.8707882 -37.9375 37.5 C-37.43299316 36.67516113 -36.92848633 35.85032227 -36.40869141 35.00048828 C-13.75052266 -1.80334723 -13.75052266 -1.80334723 0 0 Z " fill="#000000" transform="translate(1010,91)"/>
<path d="M0 0 C11.99783334 11.52123547 18.14818116 29.32618738 18.5 45.84765625 C19.04626112 77.98966052 9.3359854 100.69737502 -12.73828125 124.171875 C-13.26421875 124.76226562 -13.79015625 125.35265625 -14.33203125 125.9609375 C-33.6827808 146.79261176 -67.34800557 161.52449946 -95.67578125 162.734375 C-98.14453125 162.56640625 -98.14453125 162.56640625 -100.73828125 162.171875 C-102.3934375 161.93017578 -102.3934375 161.93017578 -104.08203125 161.68359375 C-114.26758797 159.52469858 -120.66313586 154.37801669 -126.73828125 146.171875 C-134.91307114 132.91714876 -135.94295316 117.8838348 -132.61132812 102.74291992 C-122.83496431 64.54321602 -95.23108843 34.91045376 -61.9609375 15.0390625 C-57.90372233 12.68833662 -53.846187 10.33833403 -49.75952148 8.0390625 C-46.32243226 6.10326927 -42.99128071 4.05709957 -39.67578125 1.921875 C-27.67597342 -5.33336301 -11.45968928 -9.72808937 0 0 Z M-75.73828125 49.171875 C-76.52332031 49.9453125 -77.30835938 50.71875 -78.1171875 51.515625 C-88.29703296 62.15074083 -95.98457498 74.98214757 -102.36328125 88.171875 C-102.98384399 89.44285034 -102.98384399 89.44285034 -103.61694336 90.73950195 C-109.02735106 102.37193542 -110.40747274 114.30059336 -106.11328125 126.609375 C-104.03320286 131.27057257 -101.13645372 134.55804882 -96.73828125 137.171875 C-84.39704239 140.80695422 -69.02993334 138.53473086 -57.828125 132.640625 C-56.16969655 131.64410245 -54.53000682 130.61486646 -52.921875 129.5390625 C-50.73828125 128.171875 -50.73828125 128.171875 -48.1953125 127.17578125 C-29.90314054 119.70187315 -17.94110164 92.29483909 -10.73828125 75.171875 C-5.50218924 61.77102935 -2.56192055 46.74636037 -7.55859375 32.8984375 C-9.71510849 28.02362686 -12.39071907 25.22441866 -16.73828125 22.171875 C-39.78966626 14.48808 -60.80233024 34.19880945 -75.73828125 49.171875 Z " fill="#000000" transform="translate(876.73828125,33.828125)"/>
<path d="M0 0 C3.65378475 1.99143926 5.38894402 4.01448832 6.69140625 7.921875 C6.73094859 10.25487325 6.73542357 12.58895689 6.69140625 14.921875 C4.50390625 15.609375 4.50390625 15.609375 1.69140625 15.921875 C0.54671875 15.0865625 0.54671875 15.0865625 -0.62109375 14.234375 C-1.50796875 13.80125 -2.39484375 13.368125 -3.30859375 12.921875 C-17.78924798 17.99010398 -28.55932912 33.3427363 -36.30859375 45.921875 C-37.8342856 49.16963488 -38.55508139 51.65048955 -38.43359375 55.234375 C-38.39234375 56.45125 -38.35109375 57.668125 -38.30859375 58.921875 C-25.72750064 61.55213277 -13.40111202 54.21235736 -2.30859375 48.921875 C-1.4872998 48.5304834 -0.66600586 48.1390918 0.18017578 47.73583984 C24.47533045 36.06466236 24.47533045 36.06466236 45.875 19.890625 C52.76897683 13.4865148 59.97465813 8.34179757 69.6640625 7.796875 C74.6567925 8.10471192 77.6357178 10.64252287 80.87890625 14.171875 C84.39021562 18.5587077 86.30728275 22.80919573 87.31640625 28.359375 C86.21617082 34.63071694 82.13479494 38.09783059 77.1640625 41.80859375 C69.02888844 47.18924689 60.57292695 52.53777972 50.56640625 52.390625 C48.21158027 51.80191851 47.24260192 50.74452991 45.69140625 48.921875 C45.10070611 50.86790774 45.10070611 50.86790774 44.69140625 52.921875 C46.28461902 54.51508777 47.92412433 54.11138842 50.12890625 54.140625 C55.62434751 54.0781768 60.45054243 53.00006419 65.69140625 51.421875 C66.5935083 51.15705322 67.49561035 50.89223145 68.42504883 50.61938477 C80.36230121 46.97784804 91.73775579 41.7759911 102.6484375 35.734375 C105.10279735 34.75826248 107.07371568 34.77568635 109.69140625 34.921875 C110.37813996 38.69891039 109.65957263 39.9682341 107.45703125 43.17578125 C102.95330175 48.22575845 97.04865393 50.83653174 91.06640625 53.796875 C89.85783825 54.40717259 88.6496714 55.01826519 87.44189453 55.63012695 C49.59654671 74.68928296 49.59654671 74.68928296 34.69140625 72.921875 C30.21193395 70.83660341 27.46891918 68.56315875 25.69140625 63.921875 C25.06117368 57.46949392 25.761977 52.11757211 27.69140625 45.921875 C27.08482178 46.28313477 26.4782373 46.64439453 25.85327148 47.01660156 C-28.94032159 79.5546332 -28.94032159 79.5546332 -43.30859375 77.921875 C-49.50583852 76.05821081 -53.87300135 72.33371938 -57.30859375 66.921875 C-58.08497958 65.02715544 -58.80756112 63.10967175 -59.48046875 61.17578125 C-60.00012207 59.69766968 -60.00012207 59.69766968 -60.53027344 58.18969727 C-60.78711914 57.44131592 -61.04396484 56.69293457 -61.30859375 55.921875 C-62.35200928 56.62534058 -62.35200928 56.62534058 -63.41650391 57.34301758 C-66.02007387 59.09586249 -68.62577093 60.84548681 -71.23291016 62.59301758 C-72.90691507 63.71647049 -74.57847869 64.84355831 -76.25 65.97070312 C-77.31347656 66.68291016 -78.37695312 67.39511719 -79.47265625 68.12890625 C-80.4467041 68.7835083 -81.42075195 69.43811035 -82.42431641 70.11254883 C-88.0212269 73.62352764 -92.65090913 76.29062054 -99.30859375 74.921875 C-104.1492892 72.09052483 -106.48494379 69.02938396 -107.953125 63.6015625 C-110.10322041 47.39315092 -100.3432842 27.6718902 -90.8984375 15.03515625 C-89.18468437 12.89171574 -87.78887509 11.16201567 -85.30859375 9.921875 C-81.65796142 9.51624919 -79.84010701 9.59284298 -76.68359375 11.546875 C-73.44712047 14.78334828 -70.58604361 17.76913152 -69.984375 22.4375 C-70.30859375 24.921875 -70.30859375 24.921875 -71.77734375 26.37890625 C-72.44765625 26.82621094 -73.11796875 27.27351563 -73.80859375 27.734375 C-81.48705423 33.90993396 -85.46369239 44.71186605 -88.30859375 53.921875 C-84.21528335 52.65109571 -80.53814989 51.12346876 -76.76171875 49.1015625 C-75.75238281 48.56660156 -74.74304687 48.03164062 -73.703125 47.48046875 C-72.14658203 46.64708984 -72.14658203 46.64708984 -70.55859375 45.796875 C-68.48245523 44.6863823 -66.40442402 43.57941844 -64.32421875 42.4765625 C-63.40930664 41.98655762 -62.49439453 41.49655273 -61.55175781 40.99169922 C-59.30859375 39.921875 -59.30859375 39.921875 -57.30859375 39.921875 C-57.05980469 39.20128906 -56.81101562 38.48070312 -56.5546875 37.73828125 C-50.3740629 23.76890715 -31.88384641 5.50443324 -18.59375 -1.26953125 C-12.33425742 -3.48442863 -6.00573799 -2.57215445 0 0 Z M60.06640625 31.421875 C59.28265625 32.246875 58.49890625 33.071875 57.69140625 33.921875 C61.34457296 32.67210744 62.47206461 32.25088747 64.69140625 28.921875 C62.32861889 28.69198994 62.32861889 28.69198994 60.06640625 31.421875 Z " fill="#000000" transform="translate(1124.30859375,115.078125)"/>
<path d="M0 0 C3.61520856 3.19483547 5.35646053 5.73600932 5.96484375 10.5859375 C6.11144445 14.11608227 5.82729928 16.93696226 4.75 20.3125 C2.03695869 23.02554131 -0.16623846 23.0869536 -3.859375 23.7421875 C-15.37095685 26.71173568 -25.58100937 38.72207579 -34.47558594 46.29003906 C-37.88097474 49.183309 -41.32930805 52.01278321 -44.8125 54.8125 C-69.12657914 74.24585807 -69.12657914 74.24585807 -81.75 101.4375 C-81.13558517 105.56285673 -79.48843123 106.71453405 -76.3125 109.375 C-73.6639599 110.64474023 -70.93725377 111.47929583 -68.125 112.3125 C-66.94828735 112.68580444 -66.94828735 112.68580444 -65.74780273 113.06665039 C-62.46991753 114.10594799 -59.18159103 115.10985358 -55.89257812 116.11328125 C-43.01784303 120.06985555 -30.40206732 123.96185866 -23.3125 136.375 C-20.53526665 142.18194246 -20.33636561 148.66335126 -21.96484375 154.85546875 C-29.52939609 175.27651347 -46.74902631 190.96263639 -65.7890625 200.6328125 C-71.54401737 203.1190921 -76.92704574 203.77517254 -83.125 203.875 C-83.84244385 203.89353027 -84.5598877 203.91206055 -85.29907227 203.93115234 C-90.43273852 203.87014408 -93.36700218 202.59883255 -97.3125 199.375 C-101.12880357 194.15938513 -101.04690466 188.58030682 -100.3125 182.375 C-97.60631625 171.12216814 -90.78973416 163.47413964 -82.75 155.5 C-81.70924316 154.4644397 -81.70924316 154.4644397 -80.64746094 153.40795898 C-64.32941089 137.42753663 -64.32941089 137.42753663 -57.3125 136.375 C-57.69039916 142.23243702 -60.14847914 145.29313824 -63.6875 149.6875 C-73.35389265 162.14873148 -81.66508834 175.05924315 -88.3125 189.375 C-75.04483302 187.02105908 -66.66563193 180.68833137 -57.3125 171.375 C-56.64089844 170.73820313 -55.96929687 170.10140625 -55.27734375 169.4453125 C-47.56708218 161.54185531 -41.3125 149.49488539 -41.3125 138.375 C-49.5081205 132.52098535 -58.81817687 129.95496013 -68.3828125 127.1953125 C-80.48587432 123.66228316 -93.19117161 119.55000763 -100.3125 108.375 C-104.20455311 100.09087307 -103.95303551 91.09808648 -101.4453125 82.4453125 C-97.62118681 72.08061322 -91.6728167 63.51538445 -84.3125 55.375 C-83.75997559 54.76221191 -83.20745117 54.14942383 -82.63818359 53.51806641 C-75.40669045 45.55077127 -67.97744444 37.9378285 -59.95703125 30.765625 C-57.57947032 28.61633801 -55.30842909 26.41017833 -53.0625 24.125 C-50.00425556 21.02279722 -46.82480571 18.13666762 -43.51953125 15.30078125 C-39.94731698 12.1837872 -36.49299906 8.93748813 -33.0234375 5.70703125 C-24.55104906 -1.58117609 -10.7356062 -5.57603684 0 0 Z " fill="#0054FF" transform="translate(412.3125,23.625)"/>
<path d="M0 0 C4.12369948 2.06184974 6.01854398 3.91961388 9.0625 7.3125 C9.91972656 8.25738281 10.77695313 9.20226563 11.66015625 10.17578125 C13.75069067 12.69908073 15.33883242 15.19060327 17 18 C18.45833358 19.62514468 18.45833358 19.62514468 20 21 C22.55673041 23.45597256 24.21841819 25.92272232 26 29 C26.721875 29.70125 27.44375 30.4025 28.1875 31.125 C30 33 30 33 30 36 C30.86818359 36.34611328 30.86818359 36.34611328 31.75390625 36.69921875 C34.5637803 38.32650233 35.98137981 40.22887195 37.9375 42.8125 C40.14277926 45.66542633 42.25772576 48.25772576 44.8125 50.8125 C47.44159728 53.44159728 50 56.13451501 50 60 C50.928125 60.37125 50.928125 60.37125 51.875 60.75 C54.35068687 62.20628639 54.95125002 63.37812506 56 66 C56.66 66 57.32 66 58 66 C58 66.99 58 67.98 58 69 C58.66 69 59.32 69 60 69 C60 138.3 60 207.6 60 279 C-15.24 279 -90.48 279 -168 279 C-168 212.67 -168 146.34 -168 78 C-175.26 77.67 -182.52 77.34 -190 77 C-190 59.84 -190 42.68 -190 25 C-189.67 25 -189.34 25 -189 25 C-189 41.83 -189 58.66 -189 76 C-181.74 76 -174.48 76 -167 76 C-163.73380756 79.26619244 -163.65100548 80.10212675 -163.61275768 84.49165058 C-163.62149568 85.24143271 -163.63023367 85.99121485 -163.63923645 86.76371765 C-163.6366684 87.56064529 -163.63410034 88.35757294 -163.63145447 89.1786499 C-163.62647578 91.86629143 -163.64307975 94.55337624 -163.65942383 97.2409668 C-163.6603425 99.19373208 -163.65994294 101.14649836 -163.65832806 103.09926319 C-163.65764948 108.33892673 -163.67506406 113.57838563 -163.69615936 118.81800079 C-163.71321695 123.73076539 -163.71404723 128.64347967 -163.71618652 133.55627441 C-163.73194202 147.93337682 -163.77382531 162.31044098 -163.8125 176.6875 C-163.874375 208.800625 -163.93625 240.91375 -164 274 C-90.74 274.33 -17.48 274.66 58 275 C57.855625 241.360625 57.71125 207.72125 57.5625 173.0625 C57.51939697 162.42136963 57.47629395 151.78023926 57.43188477 140.81665039 C57.38865507 131.31908108 57.38865507 131.31908108 57.34410095 121.82151794 C57.32421529 117.57490192 57.30714344 113.32828436 57.29173279 109.08164978 C57.27202466 103.67570995 57.24761179 98.26981116 57.21969402 92.86390769 C57.21023214 90.87312683 57.2024665 88.88233706 57.19653046 86.89154255 C57.18831649 84.21594393 57.17407359 81.540446 57.15821838 78.86488342 C57.1572412 78.07426734 57.15626402 77.28365126 57.15525723 76.46907711 C57.45174219 72.94050185 57.45174219 72.94050185 56 70 C54.25161165 69.8768483 52.49835496 69.82212189 50.74584961 69.79467773 C49.60901733 69.77449585 48.47218506 69.75431396 47.30090332 69.73352051 C46.09687866 69.71704468 44.892854 69.70056885 43.65234375 69.68359375 C42.55249146 69.66494263 41.45263916 69.6462915 40.31945801 69.6270752 C36.19222408 69.55853158 32.06485171 69.49854031 27.9375 69.4375 C18.718125 69.293125 9.49875 69.14875 0 69 C0 46.23 0 23.46 0 0 Z " fill="#4B6BFF" transform="translate(194,9)"/>
<path d="M0 0 C3.85046348 0.82558268 6.31822282 2.20213358 8.59765625 5.4140625 C9.38925692 8.02634471 9.11233064 8.88204408 8.22265625 11.4765625 C6.90309658 13.85869975 5.55078022 16.19938301 4.16015625 18.5390625 C-1.03965749 27.49096069 -4.94737475 36.8755503 -8.77734375 46.4765625 C-2.01448926 41.96799284 3.74154714 36.08097955 9.66015625 30.5390625 C12.17988859 28.18371447 14.70091669 25.8297612 17.22265625 23.4765625 C18.57037109 22.21779297 18.57037109 22.21779297 19.9453125 20.93359375 C30.44672115 11.33282049 30.44672115 11.33282049 37.41015625 11.1015625 C42.68227739 11.62013179 42.68227739 11.62013179 45.22265625 13.4765625 C47.928201 17.53487962 47.87231354 20.78883929 47.22265625 25.4765625 C46.09034544 29.38670056 44.80015909 33.19827178 43.4140625 37.0234375 C41.71669946 41.94300776 41.09755623 46.09326093 41.16015625 51.2890625 C41.16917969 52.26488281 41.17820312 53.24070313 41.1875 54.24609375 C41.19910156 54.98214844 41.21070313 55.71820313 41.22265625 56.4765625 C50.22883823 52.41163863 58.91732273 48.42756629 67.0234375 42.7265625 C69.22265625 41.4765625 69.22265625 41.4765625 73.22265625 41.4765625 C73.22265625 48.95041866 69.15248305 53.18331898 64.22265625 58.4765625 C55.22140041 67.45102889 46.08717488 76.29282026 33.09765625 77.8515625 C29.2537338 77.35018131 27.85393537 76.32118858 25.22265625 73.4765625 C22.06853019 66.83550091 21.82293281 61.13186496 21.97265625 53.8515625 C21.9778125 52.8409375 21.98296875 51.8303125 21.98828125 50.7890625 C22.03939711 45.92027653 22.21049325 41.25984894 23.22265625 36.4765625 C17.22342013 42.2503576 11.77412184 48.11930918 6.5703125 54.6171875 C2.33885893 59.77097122 -2.20444493 64.6261178 -6.77734375 69.4765625 C-7.586875 70.34023437 -8.39640625 71.20390625 -9.23046875 72.09375 C-19.23084261 82.46828751 -19.23084261 82.46828751 -26.96484375 83.0390625 C-30.77734375 82.4765625 -30.77734375 82.4765625 -33.15234375 80.2890625 C-36.95230177 73.71221209 -37.96899662 68.00346947 -36.77734375 60.4765625 C-35.25854492 57.73632812 -35.25854492 57.73632812 -33.2578125 54.8828125 C-27.4643905 46.09501278 -24.13078134 36.28516617 -20.46484375 26.4765625 C-19.41240582 23.68920684 -18.35615687 20.9033856 -17.2948761 18.11938477 C-16.6412755 16.40201864 -15.99316207 14.68255056 -15.35148621 12.96069336 C-9.92748276 -1.38823336 -9.92748276 -1.38823336 0 0 Z " fill="#0054FF" transform="translate(438.77734375,108.5234375)"/>
<path d="M0 0 C56.1 0 112.2 0 170 0 C170.99 2.475 170.99 2.475 172 5 C172.99 5.66 173.98 6.32 175 7 C175.33 7.99 175.66 8.98 176 10 C176.515625 10.515625 177.03125 11.03125 177.5625 11.5625 C178.036875 12.036875 178.51125 12.51125 179 13 C179 13.66 179 14.32 179 15 C179.639375 15.268125 180.27875 15.53625 180.9375 15.8125 C183 17 183 17 184 20 C184.66 20 185.32 20 186 20 C186.556875 21.051875 187.11375 22.10375 187.6875 23.1875 C189.66171156 26.68305739 192.12018103 29.200176 195 32 C195 32.66 195 33.32 195 34 C195.66 34 196.32 34 197 34 C197.99 36.475 197.99 36.475 199 39 C199.66 39 200.32 39 201 39 C203.625 41.375 203.625 41.375 206 44 C206 44.66 206 45.32 206 46 C206.66 46 207.32 46 208 46 C208 47.32 208 48.64 208 50 C208.66 50 209.32 50 210 50 C210 50.99 210 51.98 210 53 C210.99 53.33 211.98 53.66 213 54 C213 54.66 213 55.32 213 56 C213.66 56 214.32 56 215 56 C215 56.66 215 57.32 215 58 C215.66 58 216.32 58 217 58 C219.29648649 60.5614657 220 61.47967572 220 65 C220.66 65 221.32 65 222 65 C222 65.66 222 66.32 222 67 C222.66 67 223.32 67 224 67 C226.97717579 69.45019161 229.53065204 72.269206 230.55269694 76.03815639 C230.75338704 78.32896187 230.77171651 80.55304769 230.7215271 82.85215759 C230.72665365 83.71976811 230.7317802 84.58737864 230.7370621 85.48128039 C230.74691211 88.37622631 230.71400253 91.26906609 230.68115234 94.16381836 C230.6794592 96.24364167 230.68041126 98.32346857 230.68380737 100.40328979 C230.68552785 106.04144024 230.65026849 111.67882375 230.60836363 117.31679606 C230.57083887 123.21177319 230.56732987 129.10676818 230.56021118 135.00184631 C230.54156756 146.16135393 230.49233671 157.3205086 230.43211424 168.47986084 C230.36503438 181.1858984 230.33205632 193.89195287 230.30194163 206.59812343 C230.23923754 232.73227792 230.13371154 258.86611918 230 285 C229.34 285 228.68 285 228 285 C228 215.7 228 146.4 228 75 C227.34 75 226.68 75 226 75 C226 74.01 226 73.02 226 72 C225.34 72 224.68 72 224 72 C222.63823078 70.35648543 221.31037934 68.68477344 220 67 C219.154375 66.175 218.30875 65.35 217.4375 64.5 C215 62 215 62 213.59375 59.625 C211.96643294 56.94471307 210.17908527 54.80752482 208.0625 52.5 C205.8297556 50.04193277 203.6877414 47.60556809 201.625 45 C200.14913969 42.90283323 200.14913969 42.90283323 198 42 C197.54625 41.236875 197.0925 40.47375 196.625 39.6875 C195.12620781 36.9667257 195.12620781 36.9667257 193 35 C191 33 191 33 189.625 30.625 C187.87936032 27.80512052 185.92927759 25.85183779 183.5 23.625 C182 22 182 22 180.59765625 19.640625 C178.81107673 16.6877454 176.75703479 14.30263466 174.4375 11.75 C173.65246094 10.87859375 172.86742187 10.0071875 172.05859375 9.109375 C170.17908195 6.95297352 170.17908195 6.95297352 168 6 C168 28.77 168 51.54 168 75 C186.33965819 74.92080964 186.33965819 74.92080964 204.67919922 74.81982422 C206.97102676 74.81398537 209.26285637 74.80888838 211.5546875 74.8046875 C212.75359619 74.79445557 213.95250488 74.78422363 215.18774414 74.77368164 C216.32445557 74.77343994 217.46116699 74.77319824 218.63232422 74.77294922 C219.62271698 74.768508 220.61310974 74.76406677 221.6335144 74.75949097 C224 75 224 75 226 77 C226.19330391 79.69580786 226.26044723 82.28848261 226.24050903 84.98513794 C226.24221788 85.81989147 226.24392673 86.654645 226.24568737 87.51469409 C226.24899656 90.32775293 226.23795516 93.14057622 226.22705078 95.95361328 C226.22648698 97.96373489 226.22680263 99.97385691 226.22793579 101.98397827 C226.2285115 107.45479553 226.21672195 112.92552576 226.20278788 118.39632273 C226.1903168 124.1085202 226.18911289 129.82071948 226.18673706 135.53292847 C226.18051161 146.35600079 226.16408642 157.17903289 226.14403808 168.00208747 C226.12171216 180.32111998 226.11069399 192.64015437 226.10064721 204.95920205 C226.07972109 230.30615703 226.04452448 255.65307627 226 281 C197.07206707 281.02332523 168.14413554 281.04097732 139.21619511 281.05181217 C136.54622967 281.0528387 133.87626425 281.05387339 131.20629883 281.05493164 C130.54264466 281.05519395 129.87899049 281.05545626 129.19522559 281.05572652 C118.43559831 281.06008323 107.67597634 281.06797078 96.91635222 281.0771528 C85.88403659 281.08648932 74.85172391 281.09198071 63.81940454 281.09408849 C57.61933936 281.09539602 51.41928625 281.09848448 45.21922493 281.10573006 C39.39088814 281.11248644 33.56256847 281.11461774 27.73422813 281.11310768 C25.58833346 281.11338418 23.44243824 281.11539156 21.29654694 281.11920547 C18.38042082 281.12413676 15.46436048 281.12300039 12.54823303 281.12025452 C11.68735535 281.12316736 10.82647767 281.1260802 9.93951279 281.12908131 C4.11412121 281.11412121 4.11412121 281.11412121 3 280 C2.90004526 277.48555291 2.86558695 274.99851093 2.87301636 272.48352051 C2.87145637 271.68707894 2.86989638 270.89063737 2.86828911 270.07006121 C2.86427586 267.38067345 2.86747 264.69134138 2.87060547 262.00195312 C2.86925157 260.08226997 2.86747171 258.16258707 2.86529541 256.24290466 C2.8607197 251.01371822 2.8625112 245.78455141 2.8656745 240.55536461 C2.86819739 235.09586914 2.86586076 229.63637541 2.86428833 224.17687988 C2.86246643 215.00675147 2.86487349 205.8366311 2.86962891 196.66650391 C2.87507156 186.04817641 2.87330892 175.42986811 2.8678025 164.81154108 C2.86327196 155.71264052 2.86262053 146.61374575 2.86524117 137.51484442 C2.86680427 132.07268299 2.86699681 126.6305306 2.86370468 121.18836975 C2.86082682 116.07326924 2.86280008 110.95819359 2.86859894 105.84309578 C2.869927 103.96004846 2.86953165 102.07699907 2.86733627 100.19395256 C2.86462655 97.63476611 2.86800369 95.0756607 2.87301636 92.51647949 C2.87078564 91.76133954 2.86855491 91.00619958 2.86625659 90.22817659 C2.88585015 85.11414985 2.88585015 85.11414985 4 84 C5.77122886 83.89145019 7.54678859 83.85312555 9.32130432 83.84178162 C11.05247498 83.82709839 11.05247498 83.82709839 12.81861877 83.81211853 C14.09607468 83.80636307 15.37353058 83.8006076 16.68969727 83.79467773 C18.03958439 83.78510436 19.38946848 83.77509461 20.73934937 83.76467896 C24.41477343 83.73756517 28.09021042 83.71659079 31.7656796 83.69667697 C35.60275729 83.6748572 39.43979485 83.64744896 43.27684021 83.62062073 C50.54768307 83.57063946 57.81854814 83.52572087 65.08943456 83.48259836 C73.36502202 83.43327233 81.64056923 83.37833707 89.91611779 83.32291877 C106.9440428 83.20901533 123.97200461 83.10293519 141 83 C141 64.85 141 46.7 141 28 C95.46 28.33 49.92 28.66 3 29 C2.67 29.66 2.34 30.32 2 31 C-5.92 31 -13.84 31 -22 31 C-22 48.16 -22 65.32 -22 83 C-14.74 83 -7.48 83 0 83 C1 84 1 84 1.0625 86.5625 C1.041875 87.366875 1.02125 88.17125 1 89 C0.67 88.01 0.34 87.02 0 86 C-0.62044189 86.01047363 -1.24088379 86.02094727 -1.88012695 86.03173828 C-4.69087677 86.07330886 -7.5015619 86.09932933 -10.3125 86.125 C-11.28896484 86.14175781 -12.26542969 86.15851563 -13.27148438 86.17578125 C-14.20927734 86.18222656 -15.14707031 86.18867187 -16.11328125 86.1953125 C-16.97735596 86.20578613 -17.84143066 86.21625977 -18.73168945 86.22705078 C-21 86 -21 86 -24 84 C-24.38095093 81.68493652 -24.38095093 81.68493652 -24.38818359 78.75585938 C-24.39764008 77.66132446 -24.40709656 76.56678955 -24.4168396 75.43908691 C-24.41076691 74.25262573 -24.40469421 73.06616455 -24.3984375 71.84375 C-24.40130768 70.63054077 -24.40417786 69.41733154 -24.40713501 68.1673584 C-24.40917952 65.59838393 -24.40362281 63.02939404 -24.39111328 60.46044922 C-24.37506611 56.51624925 -24.39095004 52.57307415 -24.41015625 48.62890625 C-24.40817389 46.13801856 -24.40433036 43.64713151 -24.3984375 41.15625 C-24.40451019 39.96978882 -24.41058289 38.78332764 -24.4168396 37.56091309 C-24.40738312 36.46637817 -24.39792664 35.37184326 -24.38818359 34.24414062 C-24.38579681 33.27754517 -24.38341003 32.31094971 -24.38095093 31.31506348 C-24.25523712 30.55109253 -24.12952332 29.78712158 -24 29 C-20.74610012 26.83073341 -19.86604043 26.75919951 -16.11328125 26.8046875 C-15.26805908 26.80968262 -14.42283691 26.81467773 -13.55200195 26.81982422 C-12.48296631 26.83803223 -11.41393066 26.85624023 -10.3125 26.875 C-5.2078125 26.936875 -5.2078125 26.936875 0 27 C0 18.09 0 9.18 0 0 Z M5 5 C5 12.26 5 19.52 5 27 C6.69715652 27.01030746 8.39431305 27.02061493 10.14289856 27.03123474 C26.10902026 27.12883898 42.0751018 27.23150192 58.04115772 27.33933926 C66.25016159 27.39465372 74.4591698 27.44813281 82.66821289 27.49731445 C89.82191975 27.54017804 96.97559485 27.58646155 104.12925261 27.63687855 C107.91821301 27.66346195 111.70716717 27.6883146 115.49616432 27.70907402 C119.06084121 27.7286584 122.62545773 27.75280758 126.19008064 27.78049088 C128.12536711 27.79432265 130.06068646 27.80328475 131.9960022 27.81211853 C133.71867561 27.82680176 133.71867561 27.82680176 135.47615051 27.84178162 C136.97636859 27.85146044 136.97636859 27.85146044 138.50689411 27.8613348 C141 28 141 28 144 29 C144 47.15 144 65.3 144 84 C140.89762021 85.0341266 138.7299685 85.13722601 135.47615051 85.15821838 C134.33008992 85.16799241 133.18402933 85.17776644 132.00323963 85.18783665 C130.73993667 85.1936069 129.4766337 85.19937716 128.17504883 85.20532227 C126.81300653 85.21503773 125.45096724 85.22518321 124.08893108 85.23572445 C120.43849488 85.26278685 116.78804665 85.28395665 113.13756561 85.30391693 C109.71322581 85.32353032 106.28893263 85.34844315 102.86462402 85.3729248 C92.8472844 85.44144829 82.82988797 85.50145246 72.8125 85.5625 C50.434375 85.706875 28.05625 85.85125 5 86 C5 150.02 5 214.04 5 280 C77.27 280 149.54 280 224 280 C224 213.01 224 146.02 224 77 C204.86 76.67 185.72 76.34 166 76 C165.67 52.57 165.34 29.14 165 5 C112.2 5 59.4 5 5 5 Z " fill="#96ABFF" transform="translate(26,3)"/>
<path d="M0 0 C4.12369948 2.06184974 6.01854398 3.91961388 9.0625 7.3125 C9.91972656 8.25738281 10.77695313 9.20226563 11.66015625 10.17578125 C13.75069067 12.69908073 15.33883242 15.19060327 17 18 C18.45833358 19.62514468 18.45833358 19.62514468 20 21 C22.55673041 23.45597256 24.21841819 25.92272232 26 29 C26.721875 29.70125 27.44375 30.4025 28.1875 31.125 C30 33 30 33 30 36 C30.57878906 36.23074219 31.15757812 36.46148437 31.75390625 36.69921875 C34.5637803 38.32650233 35.98137981 40.22887195 37.9375 42.8125 C40.14277926 45.66542633 42.25772576 48.25772576 44.8125 50.8125 C47.44159728 53.44159728 50 56.13451501 50 60 C50.928125 60.433125 50.928125 60.433125 51.875 60.875 C54 62 54 62 56 64 C56 65.32 56 66.64 56 68 C37.52 68 19.04 68 0 68 C0 45.56 0 23.12 0 0 Z " fill="#0332FF" transform="translate(194,9)"/>
<path d="M0 0 C56.1 0 112.2 0 170 0 C170.99 2.475 170.99 2.475 172 5 C172.99 5.66 173.98 6.32 175 7 C175.33 7.99 175.66 8.98 176 10 C176.515625 10.515625 177.03125 11.03125 177.5625 11.5625 C178.036875 12.036875 178.51125 12.51125 179 13 C179 13.66 179 14.32 179 15 C179.639375 15.268125 180.27875 15.53625 180.9375 15.8125 C183 17 183 17 184 20 C184.66 20 185.32 20 186 20 C186.556875 21.051875 187.11375 22.10375 187.6875 23.1875 C189.66171156 26.68305739 192.12018103 29.200176 195 32 C195 32.66 195 33.32 195 34 C195.66 34 196.32 34 197 34 C197.99 36.475 197.99 36.475 199 39 C199.66 39 200.32 39 201 39 C203.625 41.375 203.625 41.375 206 44 C206 44.66 206 45.32 206 46 C206.66 46 207.32 46 208 46 C208 47.32 208 48.64 208 50 C208.66 50 209.32 50 210 50 C210 50.99 210 51.98 210 53 C210.99 53.33 211.98 53.66 213 54 C213 54.66 213 55.32 213 56 C213.66 56 214.32 56 215 56 C215 56.66 215 57.32 215 58 C215.66 58 216.32 58 217 58 C219.29648649 60.5614657 220 61.47967572 220 65 C220.66 65 221.32 65 222 65 C222 65.66 222 66.32 222 67 C222.66 67 223.32 67 224 67 C226.97717579 69.45019161 229.53065204 72.269206 230.55269694 76.03815639 C230.75338704 78.32896187 230.77171651 80.55304769 230.7215271 82.85215759 C230.72665365 83.71976811 230.7317802 84.58737864 230.7370621 85.48128039 C230.74691211 88.37622631 230.71400253 91.26906609 230.68115234 94.16381836 C230.6794592 96.24364167 230.68041126 98.32346857 230.68380737 100.40328979 C230.68552785 106.04144024 230.65026849 111.67882375 230.60836363 117.31679606 C230.57083887 123.21177319 230.56732987 129.10676818 230.56021118 135.00184631 C230.54156756 146.16135393 230.49233671 157.3205086 230.43211424 168.47986084 C230.36503438 181.1858984 230.33205632 193.89195287 230.30194163 206.59812343 C230.23923754 232.73227792 230.13371154 258.86611918 230 285 C229.34 285 228.68 285 228 285 C228 215.7 228 146.4 228 75 C227.34 75 226.68 75 226 75 C226 74.01 226 73.02 226 72 C225.34 72 224.68 72 224 72 C222.63823078 70.35648543 221.31037934 68.68477344 220 67 C219.154375 66.175 218.30875 65.35 217.4375 64.5 C215 62 215 62 213.59375 59.625 C211.96643294 56.94471307 210.17908527 54.80752482 208.0625 52.5 C205.8297556 50.04193277 203.6877414 47.60556809 201.625 45 C200.14913969 42.90283323 200.14913969 42.90283323 198 42 C197.54625 41.236875 197.0925 40.47375 196.625 39.6875 C195.12620781 36.9667257 195.12620781 36.9667257 193 35 C191 33 191 33 189.625 30.625 C187.87936032 27.80512052 185.92927759 25.85183779 183.5 23.625 C182 22 182 22 180.59765625 19.640625 C178.81107673 16.6877454 176.75703479 14.30263466 174.4375 11.75 C173.65246094 10.87859375 172.86742187 10.0071875 172.05859375 9.109375 C170.17908195 6.95297352 170.17908195 6.95297352 168 6 C168 28.44 168 50.88 168 74 C167.67 74 167.34 74 167 74 C167 50.9 167 27.8 167 4 C113.21 4 59.42 4 4 4 C4 11.92 4 19.84 4 28 C3.34 28.99 2.68 29.98 2 31 C-5.92 31 -13.84 31 -22 31 C-22 48.16 -22 65.32 -22 83 C-14.74 83 -7.48 83 0 83 C1 84 1 84 1.0625 86.5625 C1.041875 87.366875 1.02125 88.17125 1 89 C0.67 88.01 0.34 87.02 0 86 C-0.62044189 86.01047363 -1.24088379 86.02094727 -1.88012695 86.03173828 C-4.69087677 86.07330886 -7.5015619 86.09932933 -10.3125 86.125 C-11.28896484 86.14175781 -12.26542969 86.15851563 -13.27148438 86.17578125 C-14.20927734 86.18222656 -15.14707031 86.18867187 -16.11328125 86.1953125 C-16.97735596 86.20578613 -17.84143066 86.21625977 -18.73168945 86.22705078 C-21 86 -21 86 -24 84 C-24.38095093 81.68493652 -24.38095093 81.68493652 -24.38818359 78.75585938 C-24.39764008 77.66132446 -24.40709656 76.56678955 -24.4168396 75.43908691 C-24.41076691 74.25262573 -24.40469421 73.06616455 -24.3984375 71.84375 C-24.40130768 70.63054077 -24.40417786 69.41733154 -24.40713501 68.1673584 C-24.40917952 65.59838393 -24.40362281 63.02939404 -24.39111328 60.46044922 C-24.37506611 56.51624925 -24.39095004 52.57307415 -24.41015625 48.62890625 C-24.40817389 46.13801856 -24.40433036 43.64713151 -24.3984375 41.15625 C-24.40451019 39.96978882 -24.41058289 38.78332764 -24.4168396 37.56091309 C-24.40738312 36.46637817 -24.39792664 35.37184326 -24.38818359 34.24414062 C-24.38579681 33.27754517 -24.38341003 32.31094971 -24.38095093 31.31506348 C-24.25523712 30.55109253 -24.12952332 29.78712158 -24 29 C-20.74610012 26.83073341 -19.86604043 26.75919951 -16.11328125 26.8046875 C-15.26805908 26.80968262 -14.42283691 26.81467773 -13.55200195 26.81982422 C-12.48296631 26.83803223 -11.41393066 26.85624023 -10.3125 26.875 C-5.2078125 26.936875 -5.2078125 26.936875 0 27 C0 18.09 0 9.18 0 0 Z " fill="#5170FF" transform="translate(26,3)"/>
<path d="M0 0 C13.86 0 27.72 0 42 0 C42 10.56 42 21.12 42 32 C28.14 32 14.28 32 0 32 C0 21.44 0 10.88 0 0 Z " fill="#F9FAFE" transform="translate(69,127)"/>
<path d="M0 0 C18.48 0 36.96 0 56 0 C56 15.18 56 30.36 56 46 C37.52 46 19.04 46 0 46 C0 30.82 0 15.64 0 0 Z M7 7 C7 17.56 7 28.12 7 39 C20.86 39 34.72 39 49 39 C49 28.44 49 17.88 49 7 C35.14 7 21.28 7 7 7 Z " fill="#395BFE" transform="translate(62,120)"/>
<path d="M0 0 C20.32260091 -0.0233273 40.64519912 -0.04097834 60.96781063 -0.05181217 C70.40326827 -0.05697549 79.83871761 -0.06401887 89.27416992 -0.07543945 C97.49503683 -0.0853852 105.71589774 -0.09185317 113.9367705 -0.09408849 C118.29242322 -0.09539579 122.64805875 -0.09848281 127.00370598 -0.10573006 C131.09856614 -0.11248855 135.19340192 -0.11461731 139.28826714 -0.11310768 C140.79558952 -0.11338409 142.30291267 -0.11539022 143.81023026 -0.11920547 C145.85927499 -0.12413999 147.90833264 -0.12239819 149.9573822 -0.12025452 C151.10685805 -0.12117631 152.2563339 -0.1220981 153.44064236 -0.12304783 C156 0 156 0 157 1 C157.125 3.5 157.125 3.5 157 6 C156 7 156 7 153.44064236 7.12304783 C152.29116651 7.12212604 151.14169065 7.12120424 149.9573822 7.12025452 C148.64339951 7.12162918 147.32941681 7.12300385 145.97561646 7.12442017 C144.50579812 7.12088054 143.03598 7.11724573 141.56616211 7.11352539 C140.02908836 7.11324353 138.49201447 7.11340123 136.9549408 7.1139679 C132.7691714 7.11425591 128.58343041 7.10835852 124.39766765 7.10139394 C120.02809844 7.09516109 115.65852865 7.09455666 111.28895569 7.09336853 C103.00872953 7.09025501 94.7285165 7.08204135 86.44829613 7.07201904 C77.02402841 7.06085854 67.59976008 7.05534761 58.1754874 7.05032361 C38.78365081 7.03985875 19.39182646 7.02225891 0 7 C0 4.69 0 2.38 0 0 Z " fill="#2043FE" transform="translate(62,241)"/>
<path d="M0 0 C1.16740723 0.01078583 1.16740723 0.01078583 2.35839844 0.02178955 C3.58778641 0.02135147 3.58778641 0.02135147 4.8420105 0.02090454 C7.55835458 0.02230089 10.27442633 0.03787632 12.99072266 0.05352783 C14.87116343 0.05725688 16.75160615 0.06010436 18.63204956 0.06210327 C23.58707013 0.06974826 28.5419739 0.08940415 33.49694824 0.11151123 C38.55084655 0.13195105 43.6047637 0.14110099 48.65869141 0.15118408 C58.57931571 0.17264924 68.49985323 0.20679559 78.42041016 0.24884033 C80.04692537 3.50187077 79.53494171 6.64109635 79.42041016 10.24884033 C77.64319325 12.02605724 75.26793815 11.36872132 72.90177917 11.3732605 C71.71495293 11.36786758 71.71495293 11.36786758 70.50415039 11.36236572 C69.67495087 11.36251175 68.84575134 11.36265778 67.99142456 11.36280823 C65.23725817 11.36210884 62.48315855 11.35431527 59.72900391 11.34649658 C57.82471249 11.34463249 55.9204206 11.34320855 54.01612854 11.34220886 C48.99373053 11.33838296 43.97136124 11.32855206 38.94897461 11.31750488 C33.82812895 11.30729231 28.70727868 11.30271157 23.58642578 11.29766846 C13.53107459 11.28692986 3.47574476 11.26985257 -6.57958984 11.24884033 C-6.80133917 9.79248662 -7.00657682 8.33361077 -7.20458984 6.87384033 C-7.32060547 6.06173096 -7.43662109 5.24962158 -7.55615234 4.41290283 C-7.56388672 3.69876221 -7.57162109 2.98462158 -7.57958984 2.24884033 C-5.04396701 -0.28678251 -3.45753242 0.01339729 0 0 Z " fill="#A8B9FE" transform="translate(141.57958984375,116.75115966796875)"/>
<path d="M0 0 C51.81 0 103.62 0 157 0 C157 1.98 157 3.96 157 6 C105.19 6 53.38 6 0 6 C0 4.02 0 2.04 0 0 Z " fill="#0E33FE" transform="translate(62,201)"/>
<path d="M0 0 C0.33 0 0.66 0 1 0 C1 16.83 1 33.66 1 51 C8.26 51 15.52 51 23 51 C26.28105499 54.28105499 26.34933667 55.15450572 26.38724393 59.56952065 C26.37413614 60.71202451 26.37413614 60.71202451 26.36076355 61.87760925 C26.36332682 62.68871589 26.3658901 63.49982254 26.36853105 64.33550817 C26.3734859 67.06265797 26.35694818 69.78925833 26.34057617 72.51635742 C26.33973027 74.4675139 26.34020433 76.41867134 26.34190369 78.36982727 C26.34276649 83.67534871 26.32509459 88.98066781 26.30418181 94.28614211 C26.28546249 99.82749523 26.28366832 105.36885269 26.28010559 110.91023254 C26.27077116 121.40747022 26.24613846 131.90461446 26.21605712 142.40181094 C26.1825566 154.35085406 26.16603805 166.29990156 26.15097082 178.24897993 C26.11959013 202.83270514 26.06680247 227.41634734 26 252 C24.68 251.67 23.36 251.34 22 251 C22 185.66 22 120.32 22 53 C14.74 52.67 7.48 52.34 0 52 C0 34.84 0 17.68 0 0 Z " fill="#2C51FF" transform="translate(4,34)"/>
<path d="M0 0 C3 1 3 1 4 2.9375 C4.33 3.618125 4.66 4.29875 5 5 C5.99 5.66 6.98 6.32 8 7 C8.33 7.99 8.66 8.98 9 10 C9.515625 10.515625 10.03125 11.03125 10.5625 11.5625 C11.036875 12.036875 11.51125 12.51125 12 13 C12 13.66 12 14.32 12 15 C12.639375 15.268125 13.27875 15.53625 13.9375 15.8125 C16 17 16 17 17 20 C17.66 20 18.32 20 19 20 C19.556875 21.051875 20.11375 22.10375 20.6875 23.1875 C22.66171156 26.68305739 25.12018103 29.200176 28 32 C28 32.66 28 33.32 28 34 C28.66 34 29.32 34 30 34 C30.66 35.65 31.32 37.3 32 39 C32.66 39 33.32 39 34 39 C36.625 41.375 36.625 41.375 39 44 C39 44.66 39 45.32 39 46 C39.66 46 40.32 46 41 46 C41 47.32 41 48.64 41 50 C41.66 50 42.32 50 43 50 C43 50.99 43 51.98 43 53 C43.99 53.33 44.98 53.66 46 54 C46 54.66 46 55.32 46 56 C46.66 56 47.32 56 48 56 C48 56.66 48 57.32 48 58 C48.66 58 49.32 58 50 58 C52.29648649 60.5614657 53 61.47967572 53 65 C53.66 65 54.32 65 55 65 C55 65.66 55 66.32 55 67 C55.66 67 56.32 67 57 67 C59.97717579 69.45019161 62.53065204 72.269206 63.55269694 76.03815639 C63.75338704 78.32896187 63.77171651 80.55304769 63.7215271 82.85215759 C63.72665365 83.71976811 63.7317802 84.58737864 63.7370621 85.48128039 C63.74691211 88.37622631 63.71400253 91.26906609 63.68115234 94.16381836 C63.6794592 96.24364167 63.68041126 98.32346857 63.68380737 100.40328979 C63.68552785 106.04144024 63.65026849 111.67882375 63.60836363 117.31679606 C63.57083887 123.21177319 63.56732987 129.10676818 63.56021118 135.00184631 C63.54156756 146.16135393 63.49233671 157.3205086 63.43211424 168.47986084 C63.36503438 181.1858984 63.33205632 193.89195287 63.30194163 206.59812343 C63.23923754 232.73227792 63.13371154 258.86611918 63 285 C62.34 285 61.68 285 61 285 C61 215.7 61 146.4 61 75 C60.34 75 59.68 75 59 75 C59 74.01 59 73.02 59 72 C58.34 72 57.68 72 57 72 C55.63823078 70.35648543 54.31037934 68.68477344 53 67 C51.7315625 65.7625 51.7315625 65.7625 50.4375 64.5 C48 62 48 62 46.59375 59.625 C44.96643294 56.94471307 43.17908527 54.80752482 41.0625 52.5 C38.8297556 50.04193277 36.6877414 47.60556809 34.625 45 C33.14913969 42.90283323 33.14913969 42.90283323 31 42 C30.54625 41.236875 30.0925 40.47375 29.625 39.6875 C28.12620781 36.9667257 28.12620781 36.9667257 26 35 C24 33 24 33 22.625 30.625 C20.87936032 27.80512052 18.92927759 25.85183779 16.5 23.625 C15 22 15 22 13.59375 19.625 C11.83521113 16.72858303 9.81548397 14.46984957 7.5 12 C0 4 0 4 0 0 Z " fill="#9EAEFF" transform="translate(193,3)"/>
<path d="M0 0 C53.79 0 107.58 0 163 0 C163.33 23.1 163.66 46.2 164 70 C182.48 70.33 200.96 70.66 220 71 C220 71.33 220 71.66 220 72 C200.53 72 181.06 72 161 72 C161 48.57 161 25.14 161 1 C108.2 1 55.4 1 1 1 C1 8.26 1 15.52 1 23 C45.88 23 90.76 23 137 23 C137 23.33 137 23.66 137 24 C91.79 24 46.58 24 0 24 C0 16.08 0 8.16 0 0 Z " fill="#97ACFF" transform="translate(30,7)"/>
<path d="M0 0 C27.39 0 54.78 0 83 0 C83 1.98 83 3.96 83 6 C55.61 6 28.22 6 0 6 C0 4.02 0 2.04 0 0 Z " fill="#1A39FE" transform="translate(136,160)"/>
<path d="M0 0 C1.31950653 -0.00281982 2.63901306 -0.00563965 3.99850464 -0.00854492 C5.47459425 -0.00660031 6.95068373 -0.00455212 8.42677307 -0.00241089 C9.97045432 -0.00376487 11.51413524 -0.00554479 13.05781555 -0.00772095 C17.26230999 -0.012296 21.46678001 -0.01050533 25.6712749 -0.00734186 C30.06259908 -0.00481818 34.4539211 -0.00715586 38.84524536 -0.00872803 C46.22219724 -0.01054989 53.59913912 -0.00814318 60.97608948 -0.00338745 C69.51424633 0.00205319 78.05237931 0.00029402 86.59053558 -0.00521386 C93.90942446 -0.00974691 101.22830614 -0.01039453 108.54719597 -0.00777519 C112.92354191 -0.00621322 117.29987662 -0.00601643 121.67622185 -0.00931168 C125.79080197 -0.0121931 129.90535121 -0.01020966 134.01992798 -0.00441742 C135.53327953 -0.0030912 137.04663367 -0.00348161 138.55998421 -0.00568008 C140.61961482 -0.00839704 142.67914536 -0.00500372 144.73876953 0 C146.47071391 0.00056554 146.47071391 0.00056554 148.23764706 0.0011425 C150.93287659 0.12698364 150.93287659 0.12698364 152.93287659 1.12698364 C152.93287659 3.43698364 152.93287659 5.74698364 152.93287659 8.12698364 C152.60287659 8.12698364 152.27287659 8.12698364 151.93287659 8.12698364 C151.93287659 6.14698364 151.93287659 4.16698364 151.93287659 2.12698364 C100.12287659 2.12698364 48.31287659 2.12698364 -5.06712341 2.12698364 C-5.06712341 4.10698364 -5.06712341 6.08698364 -5.06712341 8.12698364 C46.41287659 8.12698364 97.89287659 8.12698364 150.93287659 8.12698364 C150.93287659 8.45698364 150.93287659 8.78698364 150.93287659 9.12698364 C130.47989185 9.1503109 110.0269098 9.16796196 89.57391453 9.17879581 C80.07792276 9.18395914 70.58193924 9.19100254 61.08595276 9.2024231 C52.81234813 9.21236882 44.53874948 9.2188368 36.26513904 9.22107214 C31.88154069 9.22237944 27.49795943 9.22546649 23.11436653 9.2327137 C18.99324158 9.23947215 14.87214086 9.24160096 10.75101089 9.24009132 C9.23401317 9.24036773 7.71701469 9.24237389 6.20002174 9.24618912 C4.13780357 9.25112365 2.07567832 9.24998285 0.01345825 9.24723816 C-1.14339194 9.24815995 -2.30024214 9.24908175 -3.4921484 9.25003147 C-6.06712341 9.12698364 -6.06712341 9.12698364 -7.06712341 8.12698364 C-7.19212341 4.62698364 -7.19212341 4.62698364 -7.06712341 1.12698364 C-5.25272956 -0.68741021 -2.44035587 0.00079712 0 0 Z " fill="#92AAFE" transform="translate(67.06712341308594,198.87301635742188)"/>
<path d="M0 0 C0.66 0 1.32 0 2 0 C2 0.99 2 1.98 2 3 C2.66 3 3.32 3 4 3 C4 71.64 4 140.28 4 211 C2.68 210.67 1.36 210.34 0 210 C0.33 209.67 0.66 209.34 1 209 C1.10002537 206.37205415 1.13440418 203.77032218 1.12698364 201.1418457 C1.12854363 200.30865216 1.13010362 199.47545862 1.13171089 198.61701679 C1.13572445 195.80325403 1.13252987 192.98954449 1.12939453 190.17578125 C1.13074841 188.16742928 1.13252827 186.15907756 1.13470459 184.15072632 C1.13928047 178.67981233 1.13748873 173.20891711 1.1343255 167.73800278 C1.1318027 162.02626239 1.13413922 156.31452365 1.13571167 150.6027832 C1.1375336 141.00894887 1.13512645 131.41512223 1.13037109 121.82128906 C1.12492843 110.71217769 1.12669107 99.60308466 1.1321975 88.49397373 C1.13672797 78.97469456 1.1373795 69.45542092 1.13475883 59.93614101 C1.13319569 54.24246863 1.1330033 48.54880489 1.13629532 42.85513306 C1.13917307 37.50364951 1.13720011 32.15218974 1.13140106 26.80070877 C1.13007295 24.83058334 1.13046844 22.86045592 1.13266373 20.89033127 C1.13537323 18.21291145 1.13199657 15.5355691 1.12698364 12.8581543 C1.12921436 12.06799581 1.13144509 11.27783731 1.13374341 10.46373463 C1.44577033 6.93850663 1.44577033 6.93850663 0 4 C-1.74838835 3.8768483 -3.50164504 3.82212189 -5.25415039 3.79467773 C-6.37523697 3.77473251 -7.49632355 3.75478729 -8.65138245 3.73423767 C-9.8711528 3.71752518 -11.09092316 3.70081268 -12.34765625 3.68359375 C-13.58921982 3.66281265 -14.83078339 3.64203156 -16.10997009 3.62062073 C-19.41599123 3.56616391 -22.72202245 3.51595795 -26.02813721 3.46777344 C-29.39967491 3.41760144 -32.77112053 3.36189299 -36.14257812 3.30664062 C-42.76164551 3.19929962 -49.3807816 3.09755802 -56 3 C-56 2.67 -56 2.34 -56 2 C-37.52 2 -19.04 2 0 2 C0 1.34 0 0.68 0 0 Z " fill="#3356FF" transform="translate(250,75)"/>
<path d="M0 0 C7.54498233 -0.02312851 15.08996101 -0.04091769 22.63497066 -0.05181217 C26.13808885 -0.05703989 29.64118285 -0.0641355 33.14428711 -0.07543945 C37.16780841 -0.08834206 41.19130414 -0.09322912 45.21484375 -0.09765625 C46.47836166 -0.10281754 47.74187958 -0.10797882 49.04368591 -0.11329651 C50.204814 -0.11337204 51.36594208 -0.11344757 52.56225586 -0.11352539 C54.1044706 -0.11685631 54.1044706 -0.11685631 55.67784119 -0.12025452 C58 0 58 0 59 1 C59.10350194 2.49321297 59.13850739 3.99125657 59.14526367 5.48803711 C59.15164352 6.44250229 59.15802338 7.39696747 59.16459656 8.38035583 C59.16570938 9.41886185 59.1668222 10.45736786 59.16796875 11.52734375 C59.17296135 13.11622154 59.17296135 13.11622154 59.17805481 14.73719788 C59.18312869 16.98259038 59.18546299 19.22799045 59.18530273 21.47338867 C59.18748841 24.91923378 59.20563721 28.36475852 59.22460938 31.81054688 C59.22754329 33.98697807 59.2295281 36.16341079 59.23046875 38.33984375 C59.23765427 39.37632553 59.24483978 40.41280731 59.25224304 41.48069763 C59.24916641 42.43831497 59.24608978 43.39593231 59.24291992 44.38256836 C59.24434494 45.22782578 59.24576996 46.07308319 59.24723816 46.94395447 C59 49 59 49 57 51 C54.59555054 51.24050903 54.59555054 51.24050903 51.54052734 51.22705078 C50.39949554 51.22689972 49.25846375 51.22674866 48.08285522 51.22659302 C46.22813095 51.21110916 46.22813095 51.21110916 44.3359375 51.1953125 C43.07359283 51.1924826 41.81124817 51.18965271 40.51065063 51.18673706 C37.15353056 51.17742131 33.79668088 51.15944835 30.43963623 51.1373291 C27.01446878 51.1168755 23.58927341 51.1077364 20.1640625 51.09765625 C13.44263329 51.07556458 6.72133227 51.04206377 0 51 C-1.19225915 48.6154817 -1.12682707 47.15090784 -1.12939453 44.49023438 C-1.13254669 43.55586548 -1.13569885 42.62149658 -1.13894653 41.65881348 C-1.1369223 40.64734253 -1.13489807 39.63587158 -1.1328125 38.59375 C-1.13376923 37.55810913 -1.13472595 36.52246826 -1.13571167 35.45544434 C-1.13639298 33.2631016 -1.13454209 31.07075685 -1.13037109 28.87841797 C-1.12502218 25.5139515 -1.13031775 22.14961854 -1.13671875 18.78515625 C-1.13605796 16.65885387 -1.13477678 14.53255157 -1.1328125 12.40625 C-1.13483673 11.39477905 -1.13686096 10.38330811 -1.13894653 9.34118652 C-1.13579437 8.40681763 -1.13264221 7.47244873 -1.12939453 6.50976562 C-1.12859894 5.68528931 -1.12780334 4.86081299 -1.12698364 4.01135254 C-1 2 -1 2 0 0 Z M1 3 C1 18.18 1 33.36 1 49 C19.48 49 37.96 49 57 49 C57 33.82 57 18.64 57 3 C38.52 3 20.04 3 1 3 Z " fill="#A7B9FE" transform="translate(61,117)"/>
<path d="M0 0 C17.49 0 34.98 0 53 0 C53 0.33 53 0.66 53 1 C47.56731506 2.13606798 42.30933397 2.12824385 36.7890625 2.09765625 C35.82092621 2.0962413 34.85278992 2.09482635 33.85531616 2.09336853 C30.77851201 2.08779365 27.70178197 2.07524577 24.625 2.0625 C22.53255314 2.05748175 20.44010513 2.05291941 18.34765625 2.04882812 C13.23171965 2.03868551 8.11594231 2.01910518 3 2 C3 14.54 3 27.08 3 40 C18.51 40 34.02 40 50 40 C50 28.45 50 16.9 50 5 C50.66 4.67 51.32 4.34 52 4 C52.02505615 4.86165771 52.0501123 5.72331543 52.07592773 6.61108398 C52.17181688 9.84848429 52.27099786 13.08576339 52.37231445 16.32299805 C52.41527354 17.71651349 52.45697055 19.1100685 52.49731445 20.50366211 C52.55597715 22.52209335 52.61937896 24.54033237 52.68359375 26.55859375 C52.73858032 28.37315063 52.73858032 28.37315063 52.79467773 30.22436523 C53.02694627 34.49551012 53.52763404 38.74870635 54 43 C36.18 43 18.36 43 0 43 C0 28.81 0 14.62 0 0 Z " fill="#001BFE" transform="translate(64,122)"/>
<path d="M0 0 C27.39 0 54.78 0 83 0 C83 1.65 83 3.3 83 5 C55.61 5 28.22 5 0 5 C0 3.35 0 1.7 0 0 Z " fill="#112BFE" transform="translate(136,120)"/>
<path d="M0 0 C2.0546875 1.890625 2.0546875 1.890625 3.875 4.25 C4.79925781 5.40242188 4.79925781 5.40242188 5.7421875 6.578125 C7 9 7 9 6.90625 11.625 C5.86970243 14.34146949 5.03530714 15.18380886 2.625 16.75 C2.01914063 17.15734375 1.41328125 17.5646875 0.7890625 17.984375 C-2.28987538 19.73224367 -5.0210622 20.20233364 -8.5 20.3125 C-9.2734375 20.34988281 -10.046875 20.38726562 -10.84375 20.42578125 C-13 20 -13 20 -14.69921875 18.29296875 C-16.09701206 15.82899075 -16.75864133 13.77352128 -17.3125 11 C-17.49425781 10.154375 -17.67601562 9.30875 -17.86328125 8.4375 C-18.02628531 5.53137042 -17.76751428 4.31484115 -16 2 C-13.57421875 0.91796875 -13.57421875 0.91796875 -10.6875 0.1875 C-9.74261719 -0.06644531 -8.79773437 -0.32039063 -7.82421875 -0.58203125 C-4.76459153 -1.03483915 -2.91629957 -1.02619379 0 0 Z " fill="#000000" transform="translate(1057,96)"/>
<path d="M0 0 C2.0546875 1.890625 2.0546875 1.890625 3.875 4.25 C4.79925781 5.40242188 4.79925781 5.40242188 5.7421875 6.578125 C7 9 7 9 6.90625 11.625 C5.86970243 14.34146949 5.03530714 15.18380886 2.625 16.75 C2.01914062 17.15734375 1.41328125 17.5646875 0.7890625 17.984375 C-2.28987538 19.73224367 -5.0210622 20.20233364 -8.5 20.3125 C-9.2734375 20.34988281 -10.046875 20.38726562 -10.84375 20.42578125 C-13 20 -13 20 -14.69921875 18.29296875 C-16.09701206 15.82899075 -16.75864133 13.77352128 -17.3125 11 C-17.49425781 10.154375 -17.67601562 9.30875 -17.86328125 8.4375 C-18.02628531 5.53137042 -17.76751428 4.31484115 -16 2 C-13.57421875 0.91796875 -13.57421875 0.91796875 -10.6875 0.1875 C-9.74261719 -0.06644531 -8.79773438 -0.32039063 -7.82421875 -0.58203125 C-4.76459153 -1.03483915 -2.91629957 -1.02619379 0 0 Z " fill="#0054FF" transform="translate(549,96)"/>
<path d="M0 0 C0.78964645 0.00202423 1.57929291 0.00404846 2.39286804 0.00613403 C3.63425789 0.00350555 3.63425789 0.00350555 4.90072632 0.00082397 C7.65008104 -0.00359537 10.39937199 -0.00065627 13.14872742 0.00271606 C15.0506237 0.00204305 16.9525199 0.00107304 18.85441589 -0.00018311 C22.84591997 -0.00166019 26.83740171 0.00049482 30.8289032 0.00515747 C35.95738248 0.01085476 41.08580944 0.00757582 46.2142868 0.00158501 C50.14321795 -0.00202032 54.0721366 -0.00088215 58.00106812 0.0017128 C59.89259853 0.00238215 61.78413007 0.00155338 63.67565918 -0.00076675 C66.31449918 -0.00329282 68.95325323 0.00054665 71.59208679 0.00613403 C72.77655647 0.00309769 72.77655647 0.00309769 73.98495483 0 C79.3782149 0.02126605 79.3782149 0.02126605 80.49247742 1.13552856 C80.74247742 4.57302856 80.74247742 4.57302856 80.49247742 8.13552856 C76.75055934 10.63014062 73.86154979 10.40325012 69.53276062 10.36257935 C68.72277618 10.3628714 67.91279175 10.36316345 67.07826233 10.36346436 C64.39981897 10.36207053 61.72165346 10.34650689 59.04325867 10.33084106 C57.1866674 10.32711112 55.33007416 10.32426406 53.47348022 10.32226562 C48.58587717 10.3146277 43.6983929 10.29497781 38.81083679 10.27285767 C33.82387397 10.25240269 28.83689197 10.24326465 23.84989929 10.23318481 C14.0640398 10.21173209 4.27826848 10.17759419 -5.50752258 10.13552856 C-6.99858715 7.15339943 -6.62693725 4.41943199 -6.50752258 1.13552856 C-4.73282011 -0.63917391 -2.36362305 0.00931995 0 0 Z M-4.50752258 2.13552856 C-4.50752258 4.11552856 -4.50752258 6.09552856 -4.50752258 8.13552856 C22.88247742 8.13552856 50.27247742 8.13552856 78.49247742 8.13552856 C78.49247742 6.15552856 78.49247742 4.17552856 78.49247742 2.13552856 C51.10247742 2.13552856 23.71247742 2.13552856 -4.50752258 2.13552856 Z " fill="#ADBEFC" transform="translate(140.5075225830078,157.86447143554688)"/>
<path d="M0 0 C0.33 0 0.66 0 1 0 C1 1.65 1 3.3 1 5 C-6.59 5.33 -14.18 5.66 -22 6 C-22 23.16 -22 40.32 -22 58 C-14.74 58 -7.48 58 0 58 C1 59 1 59 1.0625 61.5625 C1.041875 62.366875 1.02125 63.17125 1 64 C0.67 63.01 0.34 62.02 0 61 C-0.62044189 61.01047363 -1.24088379 61.02094727 -1.88012695 61.03173828 C-4.69087677 61.07330886 -7.5015619 61.09932933 -10.3125 61.125 C-11.28896484 61.14175781 -12.26542969 61.15851563 -13.27148438 61.17578125 C-14.20927734 61.18222656 -15.14707031 61.18867187 -16.11328125 61.1953125 C-16.97735596 61.20578613 -17.84143066 61.21625977 -18.73168945 61.22705078 C-21 61 -21 61 -24 59 C-24.38095093 56.68493652 -24.38095093 56.68493652 -24.38818359 53.75585938 C-24.39764008 52.66132446 -24.40709656 51.56678955 -24.4168396 50.43908691 C-24.41076691 49.25262573 -24.40469421 48.06616455 -24.3984375 46.84375 C-24.40130768 45.63054077 -24.40417786 44.41733154 -24.40713501 43.1673584 C-24.40917952 40.59838393 -24.40362281 38.02939404 -24.39111328 35.46044922 C-24.37506611 31.51624925 -24.39095004 27.57307415 -24.41015625 23.62890625 C-24.40817389 21.13801856 -24.40433036 18.64713151 -24.3984375 16.15625 C-24.40451019 14.96978882 -24.41058289 13.78332764 -24.4168396 12.56091309 C-24.40738312 11.46637817 -24.39792664 10.37184326 -24.38818359 9.24414062 C-24.38579681 8.27754517 -24.38341003 7.31094971 -24.38095093 6.31506348 C-24.25523712 5.55109253 -24.12952332 4.78712158 -24 4 C-20.74610012 1.83073341 -19.86604043 1.75919951 -16.11328125 1.8046875 C-14.7065918 1.81435547 -14.7065918 1.81435547 -13.27148438 1.82421875 C-11.80678711 1.84935547 -11.80678711 1.84935547 -10.3125 1.875 C-9.32443359 1.88402344 -8.33636719 1.89304687 -7.31835938 1.90234375 C-4.87866235 1.9259157 -2.43945303 1.95881978 0 2 C0 1.34 0 0.68 0 0 Z " fill="#7994FF" transform="translate(26,28)"/>
<path d="M0 0 C1.98 0 3.96 0 6 0 C6.66 1.32 7.32 2.64 8 4 C7.34 4 6.68 4 6 4 C6 26.44 6 48.88 6 72 C5.67 72 5.34 72 5 72 C5 48.9 5 25.8 5 2 C3.35 1.67 1.7 1.34 0 1 C0 0.67 0 0.34 0 0 Z " fill="#375BFF" transform="translate(188,5)"/>
<path d="M0 0 C0.66 0 1.32 0 2 0 C2 0.99 2 1.98 2 3 C2.66 3 3.32 3 4 3 C3.67 3.66 3.34 4.32 3 5 C2.01 4.67 1.02 4.34 0 4 C-1.82465899 3.88390641 -3.65307886 3.82343471 -5.48120117 3.79467773 C-6.60213669 3.77473251 -7.7230722 3.75478729 -8.87797546 3.73423767 C-10.69214714 3.70916893 -10.69214714 3.70916893 -12.54296875 3.68359375 C-13.78170242 3.66281265 -15.0204361 3.64203156 -16.29670715 3.62062073 C-19.58625256 3.56628203 -22.87582726 3.51604049 -26.16546631 3.46777344 C-29.52377814 3.41749354 -32.88200046 3.36184139 -36.24023438 3.30664062 C-42.82675159 3.19946952 -49.41333584 3.09769865 -56 3 C-56 2.67 -56 2.34 -56 2 C-37.52 2 -19.04 2 0 2 C0 1.34 0 0.68 0 0 Z " fill="#385EFF" transform="translate(250,75)"/>
<path d="M0 0 C0.99 0.33 1.98 0.66 3 1 C3 1.66 3 2.32 3 3 C3.66 3 4.32 3 5 3 C5 4.32 5 5.64 5 7 C5.66 7 6.32 7 7 7 C7 7.99 7 8.98 7 10 C7.99 10.33 8.98 10.66 10 11 C10 11.66 10 12.32 10 13 C10.66 13 11.32 13 12 13 C12 13.66 12 14.32 12 15 C12.66 15 13.32 15 14 15 C15.625 17.5 15.625 17.5 17 20 C13.22546791 18.43238691 10.80078748 16.06806222 7.9375 13.1875 C7.08027344 12.33542969 6.22304687 11.48335937 5.33984375 10.60546875 C0 4.65943239 0 4.65943239 0 0 Z " fill="#B5C4FF" transform="translate(229,46)"/>
<path d="M0 0 C5.66153846 2.33846154 5.66153846 2.33846154 7.375 5.6875 C7.684375 6.8321875 7.684375 6.8321875 8 8 C8.66 8 9.32 8 10 8 C10.99 9.485 10.99 9.485 12 11 C11.67 11.99 11.34 12.98 11 14 C7.5803498 11.75953952 6.04545631 9.4943212 4 6 C3.278125 5.278125 2.55625 4.55625 1.8125 3.8125 C1.214375 3.214375 0.61625 2.61625 0 2 C0 1.34 0 0.68 0 0 Z " fill="#96ABFF" transform="translate(217,34)"/>
<path d="M0 0 C0.33 0.66 0.66 1.32 1 2 C1.66 2 2.32 2 3 2 C3.556875 3.051875 4.11375 4.10375 4.6875 5.1875 C6.7017636 8.73953473 8.9990584 11.24913686 12 14 C11.67 14.66 11.34 15.32 11 16 C9.53548421 14.58972554 8.0786107 13.17151204 6.625 11.75 C5.81289062 10.96109375 5.00078125 10.1721875 4.1640625 9.359375 C1.26104331 6.19435047 0 4.31447141 0 0 Z " fill="#C3CFFF" transform="translate(209,21)"/>
<path d="M0 0 C3 1 3 1 4 2.9375 C4.33 3.618125 4.66 4.29875 5 5 C5.99 5.66 6.98 6.32 8 7 C8.6875 9.125 8.6875 9.125 9 11 C4.55092795 9.51697598 2.25420608 5.91714499 0 2 C0 1.34 0 0.68 0 0 Z " fill="#B4C3FF" transform="translate(193,3)"/>
</svg>
