<?xml version="1.0" encoding="UTF-8"?>
<svg version="1.1" xmlns="http://www.w3.org/2000/svg" width="1440" height="298">
<path d="M0 0 C56.1 0 112.2 0 170 0 C170.99 2.475 170.99 2.475 172 5 C172.99 5.66 173.98 6.32 175 7 C175.33 7.99 175.66 8.98 176 10 C176.515625 10.515625 177.03125 11.03125 177.5625 11.5625 C178.036875 12.036875 178.51125 12.51125 179 13 C179 13.66 179 14.32 179 15 C179.639375 15.268125 180.27875 15.53625 180.9375 15.8125 C183 17 183 17 184 20 C184.66 20 185.32 20 186 20 C186.556875 21.051875 187.11375 22.10375 187.6875 23.1875 C189.66171156 26.68305739 192.12018103 29.200176 195 32 C195 32.66 195 33.32 195 34 C195.66 34 196.32 34 197 34 C197.99 36.475 197.99 36.475 199 39 C199.66 39 200.32 39 201 39 C203.625 41.375 203.625 41.375 206 44 C206 44.66 206 45.32 206 46 C206.66 46 207.32 46 208 46 C208 47.32 208 48.64 208 50 C208.66 50 209.32 50 210 50 C210 50.99 210 51.98 210 53 C210.99 53.33 211.98 53.66 213 54 C213 54.66 213 55.32 213 56 C213.66 56 214.32 56 215 56 C215 56.66 215 57.32 215 58 C215.66 58 216.32 58 217 58 C219.29648649 60.5614657 220 61.47967572 220 65 C220.66 65 221.32 65 222 65 C222 65.66 222 66.32 222 67 C222.66 67 223.32 67 224 67 C226.97717579 69.45019161 229.53065204 72.269206 230.55269694 76.03815639 C230.75338554 78.32894478 230.7717275 80.55306854 230.7215271 82.85215759 C230.72923126 84.1504525 230.72923126 84.1504525 230.73709106 85.47497559 C230.74698916 88.3720208 230.71394457 91.26696479 230.68115234 94.16381836 C230.67931361 96.2772671 230.68011652 98.39071953 230.68334389 100.5041666 C230.68469712 106.15819534 230.64995196 111.81146043 230.60768127 117.46530914 C230.57348229 122.77283607 230.57190105 128.08017835 230.56762695 133.38781738 C230.53615731 148.90447919 230.45239017 164.42099927 230.375 179.9375 C230.25125 214.608125 230.1275 249.27875 230 285 C154.1 285 78.2 285 0 285 C0 219.33 0 153.66 0 86 C-6.93 86 -13.86 86 -21 86 C-21.99 85.34 -22.98 84.68 -24 84 C-24.38095093 81.68493652 -24.38095093 81.68493652 -24.38818359 78.75585938 C-24.39764008 77.66132446 -24.40709656 76.56678955 -24.4168396 75.43908691 C-24.41076691 74.25262573 -24.40469421 73.06616455 -24.3984375 71.84375 C-24.40130768 70.63054077 -24.40417786 69.41733154 -24.40713501 68.1673584 C-24.40917952 65.59838393 -24.40362281 63.02939404 -24.39111328 60.46044922 C-24.37506611 56.51624925 -24.39095004 52.57307415 -24.41015625 48.62890625 C-24.40817389 46.13801856 -24.40433036 43.64713151 -24.3984375 41.15625 C-24.40451019 39.96978882 -24.41058289 38.78332764 -24.4168396 37.56091309 C-24.40738312 36.46637817 -24.39792664 35.37184326 -24.38818359 34.24414062 C-24.38579681 33.27754517 -24.38341003 32.31094971 -24.38095093 31.31506348 C-24.25523712 30.55109253 -24.12952332 29.78712158 -24 29 C-20.74610012 26.83073341 -19.86604043 26.75919951 -16.11328125 26.8046875 C-15.26805908 26.80968262 -14.42283691 26.81467773 -13.55200195 26.81982422 C-12.48296631 26.83803223 -11.41393066 26.85624023 -10.3125 26.875 C-5.2078125 26.936875 -5.2078125 26.936875 0 27 C0 18.09 0 9.18 0 0 Z " fill="#010000" transform="translate(26,3)"/>
<path d="M0 0 C11.99783334 11.52123547 18.14818116 29.32618738 18.5 45.84765625 C19.04626112 77.98966052 9.3359854 100.69737502 -12.73828125 124.171875 C-13.26421875 124.76226562 -13.79015625 125.35265625 -14.33203125 125.9609375 C-33.6827808 146.79261176 -67.34800557 161.52449946 -95.67578125 162.734375 C-98.14453125 162.56640625 -98.14453125 162.56640625 -100.73828125 162.171875 C-101.84171875 162.01074219 -102.94515625 161.84960938 -104.08203125 161.68359375 C-114.25399756 159.52757915 -120.68111912 154.38301603 -126.73828125 146.171875 C-129.09264248 142.28763701 -130.98648485 138.3560218 -132.73828125 134.171875 C-133.39842006 132.83529766 -134.06399608 131.5013718 -134.73828125 130.171875 C-135.88941406 130.78933594 -137.04054688 131.40679687 -138.2265625 132.04296875 C-184.14024772 156.53124142 -184.14024772 156.53124142 -199.73828125 154.171875 C-204.21775355 152.08660341 -206.96076832 149.81315875 -208.73828125 145.171875 C-209.77293616 137.27784123 -208.07003862 131.27030853 -204.73828125 124.171875 C-212.8717847 126.30071691 -220.88521564 128.70775948 -228.86328125 131.359375 C-229.97832031 131.70806641 -231.09335937 132.05675781 -232.2421875 132.41601562 C-238.99644455 134.67936796 -243.55782946 137.27179277 -248.66015625 142.23413086 C-251.83574988 145.19520777 -255.40363329 147.24739122 -259.17578125 149.359375 C-259.91513916 149.78009277 -260.65449707 150.20081055 -261.41625977 150.63427734 C-262.86932825 151.45609607 -264.32550381 152.27245238 -265.78515625 153.08251953 C-267.43874164 154.00480678 -269.07499098 154.95807138 -270.70703125 155.91796875 C-276.23671084 159.00653979 -281.40138616 160.61003559 -287.73828125 159.171875 C-291.59983775 156.17719853 -293.48635854 153.93533397 -294.17578125 149.109375 C-293.41688651 142.27932238 -290.12829178 138.18855055 -284.9375 133.80859375 C-275.84456469 127.20261511 -266.11486312 122.38168131 -255.11328125 119.796875 C-252.33274253 119.03188329 -251.07613765 118.57162876 -249.203125 116.35546875 C-247.57296616 113.35487128 -246.51985613 111.34973758 -247.15625 107.91796875 C-247.34832031 107.34175781 -247.54039062 106.76554687 -247.73828125 106.171875 C-260.82756452 106.46274796 -271.48912934 118.86652336 -280.10009766 127.55493164 C-281.76562355 129.20704825 -283.46339506 130.82782433 -285.203125 132.40161133 C-291.85626651 138.56273042 -295.35028243 144.51959555 -298.73828125 152.859375 C-299.54427858 154.76026981 -300.35942914 156.65708594 -301.17485046 158.55395508 C-301.75706595 159.90973373 -302.3365311 161.26669638 -302.91340637 162.62475586 C-306.34157274 170.67090597 -310.05107062 178.58526652 -313.74530029 186.51177979 C-319.92491028 199.78255693 -326.01608073 213.08316356 -331.79296875 226.53515625 C-332.1187793 227.29135254 -332.44458984 228.04754883 -332.78027344 228.82666016 C-333.46651145 230.50657922 -334.10230556 232.20744871 -334.70410156 233.91943359 C-335.02733398 234.82129395 -335.35056641 235.7231543 -335.68359375 236.65234375 C-335.95961426 237.46985107 -336.23563477 238.2873584 -336.52001953 239.12963867 C-338.13456881 241.83619272 -339.78675439 242.27888164 -342.73828125 243.171875 C-346.2392469 240.9607388 -347.6046154 239.51819107 -349.11328125 235.609375 C-351.0995619 225.17452555 -347.63351317 216.63624124 -343.17578125 207.359375 C-341.98156711 204.80115869 -340.80134852 202.23655604 -339.62109375 199.671875 C-339.30922623 198.9977507 -338.9973587 198.3236264 -338.67604065 197.6290741 C-334.76153564 189.12743954 -331.16165603 180.4931895 -327.55078125 171.859375 C-326.86973817 170.23444469 -326.18866741 168.60952599 -325.50756836 166.98461914 C-323.88167031 163.10221484 -322.25971892 159.21817767 -320.63970947 155.33331299 C-319.77918232 153.26994729 -318.91784105 151.20692381 -318.05615234 149.14404297 C-315.27671541 142.48948146 -312.5026242 135.83272195 -309.73828125 129.171875 C-312.55738161 130.50108004 -315.00660107 131.99818788 -317.50390625 133.859375 C-318.22175293 134.38877686 -318.93959961 134.91817871 -319.67919922 135.46362305 C-320.82219482 136.30920776 -320.82219482 136.30920776 -321.98828125 137.171875 C-348.86694598 156.83550914 -348.86694598 156.83550914 -357.7109375 156.5390625 C-361.33861976 155.88202564 -363.58021098 154.00475981 -365.73828125 151.171875 C-369.69448524 144.57354185 -369.04851645 137.57159236 -367.33544922 130.30419922 C-363.49699327 116.59811817 -357.46142568 102.70528146 -347.73828125 92.171875 C-344.88503688 90.74525281 -342.90373576 90.86153632 -339.73828125 91.171875 C-335.59094735 93.73927218 -333.08173583 96.91893891 -330.73828125 101.171875 C-330.4140625 103.6875 -330.4140625 103.6875 -330.73828125 106.171875 C-332.20703125 107.62890625 -332.20703125 107.62890625 -334.23828125 108.984375 C-341.91674173 115.15993396 -345.89337989 125.96186605 -348.73828125 135.171875 C-344.47487911 133.85122919 -340.62685578 132.21627165 -336.66796875 130.16015625 C-335.52328125 129.56654297 -334.37859375 128.97292969 -333.19921875 128.36132812 C-332.31314941 127.89738647 -332.31314941 127.89738647 -331.40917969 127.42407227 C-329.64156309 126.49917337 -327.8696379 125.58252391 -326.09765625 124.66601562 C-319.28847174 121.12051743 -312.63903313 117.41757249 -306.07080078 113.44604492 C-303.73828125 112.171875 -303.73828125 112.171875 -301.73828125 112.171875 C-301.53203125 111.40875 -301.32578125 110.645625 -301.11328125 109.859375 C-295.87492093 95.81104504 -295.87492093 95.81104504 -289.73828125 92.171875 C-285.48298631 91.62026269 -283.33310446 91.84530539 -279.55078125 93.921875 C-277.09372229 95.88752217 -274.93720774 97.93057091 -272.73828125 100.171875 C-272.09761719 99.62917969 -271.45695313 99.08648437 -270.796875 98.52734375 C-260.21578445 89.77547303 -251.52604275 87.23682336 -237.73828125 88.171875 C-232.63883009 89.29040746 -229.58196736 91.79697329 -226.73828125 96.171875 C-225.61777974 99.53337952 -225.60531473 102.13474226 -225.61328125 105.671875 C-225.61070312 106.8165625 -225.608125 107.96125 -225.60546875 109.140625 C-225.73828125 112.171875 -225.73828125 112.171875 -226.73828125 115.171875 C-226.12831299 115.16663818 -225.51834473 115.16140137 -224.88989258 115.15600586 C-222.1101994 115.13514165 -219.33052274 115.12218487 -216.55078125 115.109375 C-215.1112207 115.09680664 -215.1112207 115.09680664 -213.64257812 115.08398438 C-212.71123047 115.08076172 -211.77988281 115.07753906 -210.8203125 115.07421875 C-209.96671143 115.06898193 -209.11311035 115.06374512 -208.23364258 115.05834961 C-205.64581378 115.17608177 -203.26166172 115.60080456 -200.73828125 116.171875 C-200.12082031 115.32625 -199.50335937 114.480625 -198.8671875 113.609375 C-190.61316093 102.47695382 -181.4846813 91.48254279 -166.98828125 89.171875 C-162.78675982 88.93558557 -160.23023524 89.68870772 -156.73828125 92.171875 C-151.498821 97.15449896 -148.4208732 102.41761925 -147.11328125 109.609375 C-148.21351668 115.88071694 -152.29489256 119.34783059 -157.265625 123.05859375 C-165.40079906 128.43924689 -173.85676055 133.78777972 -183.86328125 133.640625 C-186.21810723 133.05191851 -187.18708558 131.99452991 -188.73828125 130.171875 C-189.32898139 132.11790774 -189.32898139 132.11790774 -189.73828125 134.171875 C-188.14506848 135.76508777 -186.50556317 135.36138842 -184.30078125 135.390625 C-178.80506309 135.32817366 -173.97955411 134.24929223 -168.73828125 132.671875 C-167.83907959 132.40922852 -166.93987793 132.14658203 -166.01342773 131.87597656 C-158.22011919 129.50710653 -150.87702259 126.38588622 -143.5234375 122.90625 C-140.33145322 121.39979402 -137.11722454 120.20829579 -133.73828125 119.171875 C-133.7846875 118.635625 -133.83109375 118.099375 -133.87890625 117.546875 C-135.07602666 91.55226038 -118.75281616 65.69440212 -101.94433594 47.19775391 C-86.64988405 30.80747457 -69.20587612 18.98012178 -49.75952148 8.0390625 C-46.32243226 6.10326927 -42.99128071 4.05709957 -39.67578125 1.921875 C-27.67597342 -5.33336301 -11.45968928 -9.72808937 0 0 Z M-75.73828125 49.171875 C-76.52332031 49.9453125 -77.30835938 50.71875 -78.1171875 51.515625 C-88.29703296 62.15074083 -95.98457498 74.98214757 -102.36328125 88.171875 C-102.98384399 89.44285034 -102.98384399 89.44285034 -103.61694336 90.73950195 C-109.02735106 102.37193542 -110.40747274 114.30059336 -106.11328125 126.609375 C-104.03320286 131.27057257 -101.13645372 134.55804882 -96.73828125 137.171875 C-84.39704239 140.80695422 -69.02993334 138.53473086 -57.828125 132.640625 C-56.16969655 131.64410245 -54.53000682 130.61486646 -52.921875 129.5390625 C-50.73828125 128.171875 -50.73828125 128.171875 -48.1953125 127.17578125 C-29.90314054 119.70187315 -17.94110164 92.29483909 -10.73828125 75.171875 C-5.50218924 61.77102935 -2.56192055 46.74636037 -7.55859375 32.8984375 C-9.71510849 28.02362686 -12.39071907 25.22441866 -16.73828125 22.171875 C-39.78966626 14.48808 -60.80233024 34.19880945 -75.73828125 49.171875 Z M-174.36328125 112.671875 C-175.14703125 113.496875 -175.93078125 114.321875 -176.73828125 115.171875 C-173.08511454 113.92210744 -171.95762289 113.50088747 -169.73828125 110.171875 C-172.10106861 109.94198994 -172.10106861 109.94198994 -174.36328125 112.671875 Z " fill="#FFAB00" transform="translate(876.73828125,33.828125)"/>
<path d="M0 0 C21.67028562 -0.20833078 43.3403301 -0.36894491 65.01141548 -0.46630955 C75.07371228 -0.51271931 85.1353755 -0.57599158 95.19726562 -0.67895508 C103.96716986 -0.76865489 112.7366153 -0.8267224 121.50696552 -0.84679645 C126.15118827 -0.85853148 130.7940985 -0.88610916 135.43790054 -0.95157051 C139.80985962 -1.01270005 144.179967 -1.03149794 148.55231285 -1.01796913 C150.15600211 -1.02044358 151.75975376 -1.03832845 153.36307335 -1.07284927 C165.50427954 -1.32141922 165.50427954 -1.32141922 169.23063278 1.97068977 C170.76375615 4.25806311 171.88028895 6.49158084 173 9 C174.51659908 10.78992555 176.07285115 12.54799667 177.6875 14.25 C180.6212958 17.35100696 182.82702265 20.33646794 185 24 C186.45833358 25.62514468 186.45833358 25.62514468 188 27 C189.86984871 28.71402798 191.08877852 30.15079845 192.38671875 32.35546875 C194.23225236 35.38071391 196.38366257 37.73442525 198.8125 40.3125 C202.37557307 44.16041177 205.63153295 48.0434892 208.6953125 52.29296875 C210.13145466 54.25007763 210.13145466 54.25007763 212.6875 56.6875 C215.35495035 59.35495035 218 62.06865804 218 66 C218.598125 66.268125 219.19625 66.53625 219.8125 66.8125 C222.04237457 68.02300334 223.45490692 68.991379 225 71 C225 72.32 225 73.64 225 75 C217.58540058 75.02312883 210.17080889 75.04091785 202.75618076 75.05181217 C199.31359652 75.05703982 195.87103688 75.06413531 192.4284668 75.07543945 C188.47444957 75.08834235 184.52044244 75.09322918 180.56640625 75.09765625 C178.70394005 75.10539818 178.70394005 75.10539818 176.80384827 75.11329651 C175.66274094 75.11337204 174.52163361 75.11344757 173.34594727 75.11352539 C172.335569 75.115746 171.32519073 75.11796661 170.28419495 75.12025452 C168 75 168 75 167 74 C167 50.9 167 27.8 167 4 C113.21 4 59.42 4 4 4 C4 11.92 4 19.84 4 28 C49.21 28 94.42 28 141 28 C142.26028952 30.52057903 142.12699192 32.25558581 142.12939453 35.07641602 C142.13254669 36.13413712 142.13569885 37.19185822 142.13894653 38.28163147 C142.13591019 40.00040749 142.13591019 40.00040749 142.1328125 41.75390625 C142.13376923 42.92509506 142.13472595 44.09628387 142.13571167 45.30296326 C142.13639308 47.78197279 142.13454153 50.26098411 142.13037109 52.73999023 C142.12501755 56.55000788 142.13031992 60.35990789 142.13671875 64.16992188 C142.13605806 66.57291693 142.13477707 68.97591191 142.1328125 71.37890625 C142.13483673 72.52678116 142.13686096 73.67465607 142.13894653 74.85731506 C142.13421829 76.43916847 142.13421829 76.43916847 142.12939453 78.05297852 C142.12859894 78.9862648 142.12780334 79.91955109 142.12698364 80.88111877 C142 83 142 83 141 84 C139.22877114 84.10854981 137.45321141 84.14687445 135.67869568 84.15821838 C134.52699355 84.16799241 133.37529142 84.17776644 132.18868923 84.18783665 C130.90882169 84.1936069 129.62895414 84.19937716 128.31030273 84.20532227 C126.93849161 84.2150316 125.56668351 84.22517673 124.19487858 84.23572445 C120.50910117 84.26285277 116.82331176 84.28398763 113.13748932 84.30391693 C109.68347102 84.32349061 106.2294997 84.34842145 102.7755127 84.3729248 C92.66287703 84.44152308 82.55018423 84.50147921 72.4375 84.5625 C38.5609375 84.7790625 38.5609375 84.7790625 4 85 C4 149.35 4 213.7 4 280 C77.26 280.33 150.52 280.66 226 281 C226 213.35 226 145.7 226 76 C226.66 76.33 227.32 76.66 228 77 C228 145.64 228 214.28 228 285 C152.76 285 77.52 285 0 285 C0 219.33 0 153.66 0 86 C-6.93 86 -13.86 86 -21 86 C-21.99 85.34 -22.98 84.68 -24 84 C-24.38095093 81.68493652 -24.38095093 81.68493652 -24.38818359 78.75585938 C-24.39764008 77.66132446 -24.40709656 76.56678955 -24.4168396 75.43908691 C-24.41076691 74.25262573 -24.40469421 73.06616455 -24.3984375 71.84375 C-24.40130768 70.63054077 -24.40417786 69.41733154 -24.40713501 68.1673584 C-24.40917952 65.59838393 -24.40362281 63.02939404 -24.39111328 60.46044922 C-24.37506611 56.51624925 -24.39095004 52.57307415 -24.41015625 48.62890625 C-24.40817389 46.13801856 -24.40433036 43.64713151 -24.3984375 41.15625 C-24.40451019 39.96978882 -24.41058289 38.78332764 -24.4168396 37.56091309 C-24.40738312 36.46637817 -24.39792664 35.37184326 -24.38818359 34.24414062 C-24.38579681 33.27754517 -24.38341003 32.31094971 -24.38095093 31.31506348 C-24.25523712 30.55109253 -24.12952332 29.78712158 -24 29 C-20.74610012 26.83073341 -19.86604043 26.75919951 -16.11328125 26.8046875 C-15.26805908 26.80968262 -14.42283691 26.81467773 -13.55200195 26.81982422 C-12.48296631 26.83803223 -11.41393066 26.85624023 -10.3125 26.875 C-5.2078125 26.936875 -5.2078125 26.936875 0 27 C0 18.09 0 9.18 0 0 Z " fill="#FDCC00" transform="translate(26,3)"/>
<path d="M0 0 C6.34743313 2.32441213 11.52947869 5.10011378 15 11 C15.84383243 13.91610119 16.03082877 16.11727535 15 19 C13.27084277 20.64269937 11.54989136 21.63150009 9.43188477 22.72338867 C1.83197182 26.71294241 -3.64216237 31.23695087 -8.75 38.125 C-9.33346191 38.89183105 -9.91692383 39.65866211 -10.51806641 40.44873047 C-17.15620304 49.30849434 -23.12557681 58.62277846 -29 68 C-26.33311371 67.85756403 -23.66654233 67.71113422 -21 67.5625 C-20.25621094 67.52318359 -19.51242187 67.48386719 -18.74609375 67.44335938 C-15.05637768 67.23481021 -11.4070862 66.95408793 -7.7421875 66.47265625 C-4.81820566 66.1033433 -2.06338837 65.8645431 0.875 65.875 C1.98488281 65.87113281 1.98488281 65.87113281 3.1171875 65.8671875 C5 66 5 66 7 67 C6.41116251 70.97465309 4.78913621 73.14283607 2 76 C-4.95324926 81.07583824 -11.6645921 83.30055827 -20.0625 84.8125 C-21.08666016 85.01552734 -22.11082031 85.21855469 -23.16601562 85.42773438 C-29.09489676 86.57562638 -34.99000744 87.41838782 -41 88 C-41.28109619 88.88494141 -41.56219238 89.76988281 -41.85180664 90.68164062 C-42.86756294 93.61724762 -44.01356162 96.30510533 -45.37109375 99.09375 C-52.74903965 114.49473502 -59.51713728 130.10316279 -66.0625 145.875 C-66.47700409 146.86636963 -66.89150818 147.85773926 -67.318573 148.87915039 C-72.91950627 162.29508448 -78.36078968 175.49587328 -80.3125 190.01171875 C-81.2466657 192.71336842 -82.57493004 193.56192904 -85 195 C-88.75771449 195.5596596 -90.46352523 195.31700782 -93.75 193.375 C-98.56383516 188.29372955 -98.40510199 182.08077615 -98.28564453 175.43066406 C-97.82789455 169.93296945 -96.28029837 165.05147182 -94.4375 159.875 C-94.04691406 158.74191406 -93.65632812 157.60882813 -93.25390625 156.44140625 C-85.33237329 134.09308146 -75.47233961 112.25686278 -65 91 C-65.763125 91.061875 -66.52625 91.12375 -67.3125 91.1875 C-68.199375 91.125625 -69.08625 91.06375 -70 91 C-70.63446045 90.2562915 -70.63446045 90.2562915 -71.28173828 89.49755859 C-73.86024069 87.25025342 -75.81753856 87.69095183 -79.1796875 87.8515625 C-92.79187164 88.79705288 -92.79187164 88.79705288 -104.36230469 95.23925781 C-108.63250602 101.4178534 -110.99504513 108.50009108 -113.41259766 115.5546875 C-115.16408045 120.58808599 -117.23533101 125.4739579 -119.32421875 130.375 C-120.09554058 132.18970938 -120.86669874 134.00448834 -121.63769531 135.81933594 C-122.02042603 136.72002808 -122.40315674 137.62072021 -122.79748535 138.54870605 C-125.62226317 145.24208954 -128.34606761 151.9774515 -131.07293701 158.71118164 C-131.68589799 160.22451607 -132.30001447 161.73738304 -132.91534424 163.24975586 C-133.76022077 165.32681919 -134.60146111 167.40531339 -135.44140625 169.484375 C-136.15018921 171.23572754 -136.15018921 171.23572754 -136.87329102 173.02246094 C-139.03915511 178.7461616 -139.99099738 184.02700786 -138 190 C-137.625 193.5 -137.625 193.5 -138 197 C-140.7559587 199.5889309 -142.70073722 199.96191201 -146.4375 200.4375 C-150.71381679 199.91233829 -152.71769265 198.76012209 -156 196 C-160.00716697 190.61105132 -160.19175737 185.55399297 -160 179 C-154.83287741 150.12915419 -139.56578969 122.20336733 -127 96 C-128.42699219 95.58427734 -128.42699219 95.58427734 -129.8828125 95.16015625 C-133 94 -133 94 -134.875 91.4375 C-136.23483105 87.28246068 -136.84178539 83.33271891 -136 79 C-134.07833555 76.54453987 -133.03468873 76.01156291 -130 75 C-127.60509014 74.93029948 -125.20832309 74.91551997 -122.8125 74.9375 C-121.54019531 74.94652344 -120.26789062 74.95554687 -118.95703125 74.96484375 C-117.98121094 74.97644531 -117.00539063 74.98804688 -116 75 C-115.77054688 74.22011719 -115.54109375 73.44023437 -115.3046875 72.63671875 C-108.53004592 53.75291242 -93.07729051 19.53864525 -74 10 C-66.25526661 9.17020714 -60.34358598 11.55039592 -54.25390625 16.38671875 C-52.29521085 18.4119987 -51.06904414 20.22274715 -50.81689453 23.0612793 C-50.87792969 25.04085286 -50.93896484 27.02042643 -51 29 C-52.34191406 29.67482422 -52.34191406 29.67482422 -53.7109375 30.36328125 C-71.5003623 39.66555476 -81.33075479 55.93783788 -91 73 C-70.75397448 74.32148963 -70.75397448 74.32148963 -52.40869141 68.02099609 C-48.56506485 62.93828543 -46.83065126 57.04175664 -45.02392578 50.99658203 C-43.34687529 46.08859019 -40.68928919 41.8707882 -37.9375 37.5 C-37.43299316 36.67516113 -36.92848633 35.85032227 -36.40869141 35.00048828 C-13.75052266 -1.80334723 -13.75052266 -1.80334723 0 0 Z " fill="#FFFFFF" transform="translate(1010,91)"/>
<path d="M0 0 C11.99783334 11.52123547 18.14818116 29.32618738 18.5 45.84765625 C19.04626112 77.98966052 9.3359854 100.69737502 -12.73828125 124.171875 C-13.26421875 124.76226562 -13.79015625 125.35265625 -14.33203125 125.9609375 C-33.6827808 146.79261176 -67.34800557 161.52449946 -95.67578125 162.734375 C-98.14453125 162.56640625 -98.14453125 162.56640625 -100.73828125 162.171875 C-102.3934375 161.93017578 -102.3934375 161.93017578 -104.08203125 161.68359375 C-114.26758797 159.52469858 -120.66313586 154.37801669 -126.73828125 146.171875 C-134.91307114 132.91714876 -135.94295316 117.8838348 -132.61132812 102.74291992 C-122.83496431 64.54321602 -95.23108843 34.91045376 -61.9609375 15.0390625 C-57.90372233 12.68833662 -53.846187 10.33833403 -49.75952148 8.0390625 C-46.32243226 6.10326927 -42.99128071 4.05709957 -39.67578125 1.921875 C-27.67597342 -5.33336301 -11.45968928 -9.72808937 0 0 Z M-75.73828125 49.171875 C-76.52332031 49.9453125 -77.30835938 50.71875 -78.1171875 51.515625 C-88.29703296 62.15074083 -95.98457498 74.98214757 -102.36328125 88.171875 C-102.98384399 89.44285034 -102.98384399 89.44285034 -103.61694336 90.73950195 C-109.02735106 102.37193542 -110.40747274 114.30059336 -106.11328125 126.609375 C-104.03320286 131.27057257 -101.13645372 134.55804882 -96.73828125 137.171875 C-84.39704239 140.80695422 -69.02993334 138.53473086 -57.828125 132.640625 C-56.16969655 131.64410245 -54.53000682 130.61486646 -52.921875 129.5390625 C-50.73828125 128.171875 -50.73828125 128.171875 -48.1953125 127.17578125 C-29.90314054 119.70187315 -17.94110164 92.29483909 -10.73828125 75.171875 C-5.50218924 61.77102935 -2.56192055 46.74636037 -7.55859375 32.8984375 C-9.71510849 28.02362686 -12.39071907 25.22441866 -16.73828125 22.171875 C-39.78966626 14.48808 -60.80233024 34.19880945 -75.73828125 49.171875 Z " fill="#FFFEFE" transform="translate(876.73828125,33.828125)"/>
<path d="M0 0 C3.65378475 1.99143926 5.38894402 4.01448832 6.69140625 7.921875 C6.73094859 10.25487325 6.73542357 12.58895689 6.69140625 14.921875 C4.50390625 15.609375 4.50390625 15.609375 1.69140625 15.921875 C0.54671875 15.0865625 0.54671875 15.0865625 -0.62109375 14.234375 C-1.50796875 13.80125 -2.39484375 13.368125 -3.30859375 12.921875 C-17.78924798 17.99010398 -28.55932912 33.3427363 -36.30859375 45.921875 C-37.8342856 49.16963488 -38.55508139 51.65048955 -38.43359375 55.234375 C-38.39234375 56.45125 -38.35109375 57.668125 -38.30859375 58.921875 C-25.72750064 61.55213277 -13.40111202 54.21235736 -2.30859375 48.921875 C-1.4872998 48.5304834 -0.66600586 48.1390918 0.18017578 47.73583984 C24.47533045 36.06466236 24.47533045 36.06466236 45.875 19.890625 C52.76897683 13.4865148 59.97465813 8.34179757 69.6640625 7.796875 C74.6567925 8.10471192 77.6357178 10.64252287 80.87890625 14.171875 C84.39021562 18.5587077 86.30728275 22.80919573 87.31640625 28.359375 C86.21617082 34.63071694 82.13479494 38.09783059 77.1640625 41.80859375 C69.02888844 47.18924689 60.57292695 52.53777972 50.56640625 52.390625 C48.21158027 51.80191851 47.24260192 50.74452991 45.69140625 48.921875 C45.10070611 50.86790774 45.10070611 50.86790774 44.69140625 52.921875 C46.28461902 54.51508777 47.92412433 54.11138842 50.12890625 54.140625 C55.62434751 54.0781768 60.45054243 53.00006419 65.69140625 51.421875 C66.5935083 51.15705322 67.49561035 50.89223145 68.42504883 50.61938477 C80.36230121 46.97784804 91.73775579 41.7759911 102.6484375 35.734375 C105.10279735 34.75826248 107.07371568 34.77568635 109.69140625 34.921875 C110.37813996 38.69891039 109.65957263 39.9682341 107.45703125 43.17578125 C102.95330175 48.22575845 97.04865393 50.83653174 91.06640625 53.796875 C89.85783825 54.40717259 88.6496714 55.01826519 87.44189453 55.63012695 C49.59654671 74.68928296 49.59654671 74.68928296 34.69140625 72.921875 C30.21193395 70.83660341 27.46891918 68.56315875 25.69140625 63.921875 C25.06117368 57.46949392 25.761977 52.11757211 27.69140625 45.921875 C27.08482178 46.28313477 26.4782373 46.64439453 25.85327148 47.01660156 C-28.94032159 79.5546332 -28.94032159 79.5546332 -43.30859375 77.921875 C-49.50583852 76.05821081 -53.87300135 72.33371938 -57.30859375 66.921875 C-58.08497958 65.02715544 -58.80756112 63.10967175 -59.48046875 61.17578125 C-60.00012207 59.69766968 -60.00012207 59.69766968 -60.53027344 58.18969727 C-60.78711914 57.44131592 -61.04396484 56.69293457 -61.30859375 55.921875 C-62.35200928 56.62534058 -62.35200928 56.62534058 -63.41650391 57.34301758 C-66.02007387 59.09586249 -68.62577093 60.84548681 -71.23291016 62.59301758 C-72.90691507 63.71647049 -74.57847869 64.84355831 -76.25 65.97070312 C-77.31347656 66.68291016 -78.37695312 67.39511719 -79.47265625 68.12890625 C-80.4467041 68.7835083 -81.42075195 69.43811035 -82.42431641 70.11254883 C-88.0212269 73.62352764 -92.65090913 76.29062054 -99.30859375 74.921875 C-104.1492892 72.09052483 -106.48494379 69.02938396 -107.953125 63.6015625 C-110.10322041 47.39315092 -100.3432842 27.6718902 -90.8984375 15.03515625 C-89.18468437 12.89171574 -87.78887509 11.16201567 -85.30859375 9.921875 C-81.65796142 9.51624919 -79.84010701 9.59284298 -76.68359375 11.546875 C-73.44712047 14.78334828 -70.58604361 17.76913152 -69.984375 22.4375 C-70.30859375 24.921875 -70.30859375 24.921875 -71.77734375 26.37890625 C-72.44765625 26.82621094 -73.11796875 27.27351563 -73.80859375 27.734375 C-81.48705423 33.90993396 -85.46369239 44.71186605 -88.30859375 53.921875 C-84.21528335 52.65109571 -80.53814989 51.12346876 -76.76171875 49.1015625 C-75.75238281 48.56660156 -74.74304687 48.03164062 -73.703125 47.48046875 C-72.14658203 46.64708984 -72.14658203 46.64708984 -70.55859375 45.796875 C-68.48245523 44.6863823 -66.40442402 43.57941844 -64.32421875 42.4765625 C-63.40930664 41.98655762 -62.49439453 41.49655273 -61.55175781 40.99169922 C-59.30859375 39.921875 -59.30859375 39.921875 -57.30859375 39.921875 C-57.05980469 39.20128906 -56.81101562 38.48070312 -56.5546875 37.73828125 C-50.3740629 23.76890715 -31.88384641 5.50443324 -18.59375 -1.26953125 C-12.33425742 -3.48442863 -6.00573799 -2.57215445 0 0 Z M60.06640625 31.421875 C59.28265625 32.246875 58.49890625 33.071875 57.69140625 33.921875 C61.34457296 32.67210744 62.47206461 32.25088747 64.69140625 28.921875 C62.32861889 28.69198994 62.32861889 28.69198994 60.06640625 31.421875 Z " fill="#FFFFFF" transform="translate(1124.30859375,115.078125)"/>
<path d="M0 0 C3.61520856 3.19483547 5.35646053 5.73600932 5.96484375 10.5859375 C6.11144445 14.11608227 5.82729928 16.93696226 4.75 20.3125 C2.03695869 23.02554131 -0.16623846 23.0869536 -3.859375 23.7421875 C-15.37095685 26.71173568 -25.58100937 38.72207579 -34.47558594 46.29003906 C-37.88097474 49.183309 -41.32930805 52.01278321 -44.8125 54.8125 C-69.12657914 74.24585807 -69.12657914 74.24585807 -81.75 101.4375 C-81.13558517 105.56285673 -79.48843123 106.71453405 -76.3125 109.375 C-73.6639599 110.64474023 -70.93725377 111.47929583 -68.125 112.3125 C-66.94828735 112.68580444 -66.94828735 112.68580444 -65.74780273 113.06665039 C-62.46991753 114.10594799 -59.18159103 115.10985358 -55.89257812 116.11328125 C-43.01784303 120.06985555 -30.40206732 123.96185866 -23.3125 136.375 C-20.53526665 142.18194246 -20.33636561 148.66335126 -21.96484375 154.85546875 C-29.52939609 175.27651347 -46.74902631 190.96263639 -65.7890625 200.6328125 C-71.54401737 203.1190921 -76.92704574 203.77517254 -83.125 203.875 C-83.84244385 203.89353027 -84.5598877 203.91206055 -85.29907227 203.93115234 C-90.43273852 203.87014408 -93.36700218 202.59883255 -97.3125 199.375 C-101.12880357 194.15938513 -101.04690466 188.58030682 -100.3125 182.375 C-97.60631625 171.12216814 -90.78973416 163.47413964 -82.75 155.5 C-81.70924316 154.4644397 -81.70924316 154.4644397 -80.64746094 153.40795898 C-64.32941089 137.42753663 -64.32941089 137.42753663 -57.3125 136.375 C-57.69039916 142.23243702 -60.14847914 145.29313824 -63.6875 149.6875 C-73.35389265 162.14873148 -81.66508834 175.05924315 -88.3125 189.375 C-75.04483302 187.02105908 -66.66563193 180.68833137 -57.3125 171.375 C-56.64089844 170.73820313 -55.96929687 170.10140625 -55.27734375 169.4453125 C-47.56708218 161.54185531 -41.3125 149.49488539 -41.3125 138.375 C-49.5081205 132.52098535 -58.81817687 129.95496013 -68.3828125 127.1953125 C-80.48587432 123.66228316 -93.19117161 119.55000763 -100.3125 108.375 C-104.20455311 100.09087307 -103.95303551 91.09808648 -101.4453125 82.4453125 C-97.62118681 72.08061322 -91.6728167 63.51538445 -84.3125 55.375 C-83.75997559 54.76221191 -83.20745117 54.14942383 -82.63818359 53.51806641 C-75.40669045 45.55077127 -67.97744444 37.9378285 -59.95703125 30.765625 C-57.57947032 28.61633801 -55.30842909 26.41017833 -53.0625 24.125 C-50.00425556 21.02279722 -46.82480571 18.13666762 -43.51953125 15.30078125 C-39.94731698 12.1837872 -36.49299906 8.93748813 -33.0234375 5.70703125 C-24.55104906 -1.58117609 -10.7356062 -5.57603684 0 0 Z " fill="#FFAB00" transform="translate(412.3125,23.625)"/>
<path d="M0 0 C21.67028562 -0.20833078 43.3403301 -0.36894491 65.01141548 -0.46630955 C75.07371228 -0.51271931 85.1353755 -0.57599158 95.19726562 -0.67895508 C103.96716986 -0.76865489 112.7366153 -0.8267224 121.50696552 -0.84679645 C126.15118827 -0.85853148 130.7940985 -0.88610916 135.43790054 -0.95157051 C139.80985962 -1.01270005 144.179967 -1.03149794 148.55231285 -1.01796913 C150.15600211 -1.02044358 151.75975376 -1.03832845 153.36307335 -1.07284927 C165.50427954 -1.32141922 165.50427954 -1.32141922 169.23063278 1.97068977 C170.76375615 4.25806311 171.88028895 6.49158084 173 9 C174.51659908 10.78992555 176.07285115 12.54799667 177.6875 14.25 C180.6212958 17.35100696 182.82702265 20.33646794 185 24 C186.45833358 25.62514468 186.45833358 25.62514468 188 27 C189.86984871 28.71402798 191.08877852 30.15079845 192.38671875 32.35546875 C194.23225236 35.38071391 196.38366257 37.73442525 198.8125 40.3125 C202.37557307 44.16041177 205.63153295 48.0434892 208.6953125 52.29296875 C210.13145466 54.25007763 210.13145466 54.25007763 212.6875 56.6875 C215.35495035 59.35495035 218 62.06865804 218 66 C218.598125 66.268125 219.19625 66.53625 219.8125 66.8125 C222.04237457 68.02300334 223.45490692 68.991379 225 71 C225 72.32 225 73.64 225 75 C217.58540058 75.02312883 210.17080889 75.04091785 202.75618076 75.05181217 C199.31359652 75.05703982 195.87103688 75.06413531 192.4284668 75.07543945 C188.47444957 75.08834235 184.52044244 75.09322918 180.56640625 75.09765625 C178.70394005 75.10539818 178.70394005 75.10539818 176.80384827 75.11329651 C175.66274094 75.11337204 174.52163361 75.11344757 173.34594727 75.11352539 C172.335569 75.115746 171.32519073 75.11796661 170.28419495 75.12025452 C168 75 168 75 167 74 C167 50.9 167 27.8 167 4 C113.21 4 59.42 4 4 4 C4 11.92 4 19.84 4 28 C-2.70820393 32.47213595 -11.94686762 30.61651751 -20 31 C-20.33 47.83 -20.66 64.66 -21 82 C-13.74 82 -6.48 82 1 82 C4.26619244 85.26619244 4.34899452 86.10212675 4.38724232 90.49165058 C4.37850432 91.24143271 4.36976633 91.99121485 4.36076355 92.76371765 C4.3633316 93.56064529 4.36589966 94.35757294 4.36854553 95.1786499 C4.37352422 97.86629143 4.35692025 100.55337624 4.34057617 103.2409668 C4.3396575 105.19373208 4.34005706 107.14649836 4.34167194 109.09926319 C4.34235052 114.33892673 4.32493594 119.57838563 4.30384064 124.81800079 C4.28678305 129.73076539 4.28595277 134.64347967 4.28381348 139.55627441 C4.26805798 153.93337682 4.22617469 168.31044098 4.1875 182.6875 C4.125625 214.800625 4.06375 246.91375 4 280 C77.26 280.33 150.52 280.66 226 281 C226 213.35 226 145.7 226 76 C226.66 76.33 227.32 76.66 228 77 C228 145.64 228 214.28 228 285 C152.76 285 77.52 285 0 285 C0 219.33 0 153.66 0 86 C-6.93 86 -13.86 86 -21 86 C-21.99 85.34 -22.98 84.68 -24 84 C-24.38095093 81.68493652 -24.38095093 81.68493652 -24.38818359 78.75585938 C-24.39764008 77.66132446 -24.40709656 76.56678955 -24.4168396 75.43908691 C-24.41076691 74.25262573 -24.40469421 73.06616455 -24.3984375 71.84375 C-24.40130768 70.63054077 -24.40417786 69.41733154 -24.40713501 68.1673584 C-24.40917952 65.59838393 -24.40362281 63.02939404 -24.39111328 60.46044922 C-24.37506611 56.51624925 -24.39095004 52.57307415 -24.41015625 48.62890625 C-24.40817389 46.13801856 -24.40433036 43.64713151 -24.3984375 41.15625 C-24.40451019 39.96978882 -24.41058289 38.78332764 -24.4168396 37.56091309 C-24.40738312 36.46637817 -24.39792664 35.37184326 -24.38818359 34.24414062 C-24.38579681 33.27754517 -24.38341003 32.31094971 -24.38095093 31.31506348 C-24.25523712 30.55109253 -24.12952332 29.78712158 -24 29 C-20.74610012 26.83073341 -19.86604043 26.75919951 -16.11328125 26.8046875 C-15.26805908 26.80968262 -14.42283691 26.81467773 -13.55200195 26.81982422 C-12.48296631 26.83803223 -11.41393066 26.85624023 -10.3125 26.875 C-5.2078125 26.936875 -5.2078125 26.936875 0 27 C0 18.09 0 9.18 0 0 Z " fill="#BB9900" transform="translate(26,3)"/>
<path d="M0 0 C3.85046348 0.82558268 6.31822282 2.20213358 8.59765625 5.4140625 C9.38925692 8.02634471 9.11233064 8.88204408 8.22265625 11.4765625 C6.90309658 13.85869975 5.55078022 16.19938301 4.16015625 18.5390625 C-1.03965749 27.49096069 -4.94737475 36.8755503 -8.77734375 46.4765625 C-2.01448926 41.96799284 3.74154714 36.08097955 9.66015625 30.5390625 C12.17988859 28.18371447 14.70091669 25.8297612 17.22265625 23.4765625 C18.57037109 22.21779297 18.57037109 22.21779297 19.9453125 20.93359375 C30.44672115 11.33282049 30.44672115 11.33282049 37.41015625 11.1015625 C42.68227739 11.62013179 42.68227739 11.62013179 45.22265625 13.4765625 C47.928201 17.53487962 47.87231354 20.78883929 47.22265625 25.4765625 C46.09034544 29.38670056 44.80015909 33.19827178 43.4140625 37.0234375 C41.71669946 41.94300776 41.09755623 46.09326093 41.16015625 51.2890625 C41.16917969 52.26488281 41.17820312 53.24070313 41.1875 54.24609375 C41.19910156 54.98214844 41.21070313 55.71820313 41.22265625 56.4765625 C50.22883823 52.41163863 58.91732273 48.42756629 67.0234375 42.7265625 C69.22265625 41.4765625 69.22265625 41.4765625 73.22265625 41.4765625 C73.22265625 48.95041866 69.15248305 53.18331898 64.22265625 58.4765625 C55.22140041 67.45102889 46.08717488 76.29282026 33.09765625 77.8515625 C29.2537338 77.35018131 27.85393537 76.32118858 25.22265625 73.4765625 C22.06853019 66.83550091 21.82293281 61.13186496 21.97265625 53.8515625 C21.9778125 52.8409375 21.98296875 51.8303125 21.98828125 50.7890625 C22.03939711 45.92027653 22.21049325 41.25984894 23.22265625 36.4765625 C17.22342013 42.2503576 11.77412184 48.11930918 6.5703125 54.6171875 C2.33885893 59.77097122 -2.20444493 64.6261178 -6.77734375 69.4765625 C-7.586875 70.34023437 -8.39640625 71.20390625 -9.23046875 72.09375 C-19.23084261 82.46828751 -19.23084261 82.46828751 -26.96484375 83.0390625 C-30.77734375 82.4765625 -30.77734375 82.4765625 -33.15234375 80.2890625 C-36.95230177 73.71221209 -37.96899662 68.00346947 -36.77734375 60.4765625 C-35.25854492 57.73632812 -35.25854492 57.73632812 -33.2578125 54.8828125 C-27.4643905 46.09501278 -24.13078134 36.28516617 -20.46484375 26.4765625 C-19.41240582 23.68920684 -18.35615687 20.9033856 -17.2948761 18.11938477 C-16.6412755 16.40201864 -15.99316207 14.68255056 -15.35148621 12.96069336 C-9.92748276 -1.38823336 -9.92748276 -1.38823336 0 0 Z " fill="#FFAB00" transform="translate(438.77734375,108.5234375)"/>
<path d="M0 0 C3 1 3 1 4 2.9375 C4.33 3.618125 4.66 4.29875 5 5 C5.99 5.66 6.98 6.32 8 7 C8.33 7.99 8.66 8.98 9 10 C9.515625 10.515625 10.03125 11.03125 10.5625 11.5625 C11.036875 12.036875 11.51125 12.51125 12 13 C12 13.66 12 14.32 12 15 C12.639375 15.268125 13.27875 15.53625 13.9375 15.8125 C16 17 16 17 17 20 C17.66 20 18.32 20 19 20 C19.556875 21.051875 20.11375 22.10375 20.6875 23.1875 C22.66171156 26.68305739 25.12018103 29.200176 28 32 C28 32.66 28 33.32 28 34 C28.66 34 29.32 34 30 34 C30.99 36.475 30.99 36.475 32 39 C32.66 39 33.32 39 34 39 C36.625 41.375 36.625 41.375 39 44 C39 44.66 39 45.32 39 46 C39.66 46 40.32 46 41 46 C41 47.32 41 48.64 41 50 C41.66 50 42.32 50 43 50 C43 50.99 43 51.98 43 53 C43.99 53.33 44.98 53.66 46 54 C46 54.66 46 55.32 46 56 C46.66 56 47.32 56 48 56 C48 56.66 48 57.32 48 58 C48.66 58 49.32 58 50 58 C52.29648649 60.5614657 53 61.47967572 53 65 C53.66 65 54.32 65 55 65 C55 65.66 55 66.32 55 67 C55.66 67 56.32 67 57 67 C59.97717579 69.45019161 62.53065204 72.269206 63.55269694 76.03815639 C63.75338704 78.32896187 63.77171651 80.55304769 63.7215271 82.85215759 C63.72665365 83.71976811 63.7317802 84.58737864 63.7370621 85.48128039 C63.74691211 88.37622631 63.71400253 91.26906609 63.68115234 94.16381836 C63.6794592 96.24364167 63.68041126 98.32346857 63.68380737 100.40328979 C63.68552785 106.04144024 63.65026849 111.67882375 63.60836363 117.31679606 C63.57083887 123.21177319 63.56732987 129.10676818 63.56021118 135.00184631 C63.54156756 146.16135393 63.49233671 157.3205086 63.43211424 168.47986084 C63.36503438 181.1858984 63.33205632 193.89195287 63.30194163 206.59812343 C63.23923754 232.73227792 63.13371154 258.86611918 63 285 C62.34 285 61.68 285 61 285 C60.67 216.36 60.34 147.72 60 77 C59.505 177.98 59.505 177.98 59 281 C3.36837843 281.04030303 3.36837843 281.04030303 -19.86523438 281.04882812 C-25.17472334 281.05079192 -30.48421227 281.05280665 -35.79370117 281.05493164 C-36.7919509 281.05532726 -36.7919509 281.05532726 -37.81036729 281.05573088 C-48.56813028 281.06008559 -59.32588795 281.06797237 -70.08364778 281.0771528 C-81.11596341 281.08648932 -92.14827609 281.09198071 -103.18059546 281.09408849 C-109.38066064 281.09539602 -115.58071375 281.09848448 -121.78077507 281.10573006 C-127.60911186 281.11248644 -133.43743153 281.11461774 -139.26577187 281.11310768 C-141.41166654 281.11338418 -143.55756176 281.11539156 -145.70345306 281.11920547 C-148.61957918 281.12413676 -151.53563952 281.12300039 -154.45176697 281.12025452 C-155.31264465 281.12316736 -156.17352233 281.1260802 -157.06048721 281.12908131 C-162.88587879 281.11412121 -162.88587879 281.11412121 -164 280 C-164.09995474 277.48555291 -164.13441305 274.99851093 -164.12698364 272.48352051 C-164.12854363 271.68707894 -164.13010362 270.89063737 -164.13171089 270.07006121 C-164.13572414 267.38067345 -164.13253 264.69134138 -164.12939453 262.00195312 C-164.13074843 260.08226997 -164.13252829 258.16258707 -164.13470459 256.24290466 C-164.1392803 251.01371822 -164.1374888 245.78455141 -164.1343255 240.55536461 C-164.13180261 235.09586914 -164.13413924 229.63637541 -164.13571167 224.17687988 C-164.13753357 215.00675147 -164.13512651 205.8366311 -164.13037109 196.66650391 C-164.12492844 186.04817641 -164.12669108 175.42986811 -164.1321975 164.81154108 C-164.13672804 155.71264052 -164.13737947 146.61374575 -164.13475883 137.51484442 C-164.13319573 132.07268299 -164.13300319 126.6305306 -164.13629532 121.18836975 C-164.13917318 116.07326924 -164.13719992 110.95819359 -164.13140106 105.84309578 C-164.130073 103.96004846 -164.13046835 102.07699907 -164.13266373 100.19395256 C-164.13537345 97.63476611 -164.13199631 95.0756607 -164.12698364 92.51647949 C-164.13032973 91.38376956 -164.13032973 91.38376956 -164.13374341 90.22817659 C-164.11414985 85.11414985 -164.11414985 85.11414985 -163 84 C-161.22877114 83.89145019 -159.45321141 83.85312555 -157.67869568 83.84178162 C-155.94752502 83.82709839 -155.94752502 83.82709839 -154.18138123 83.81211853 C-152.90392532 83.80636307 -151.62646942 83.8006076 -150.31030273 83.79467773 C-148.96041561 83.78510436 -147.61053152 83.77509461 -146.26065063 83.76467896 C-142.58522657 83.73756517 -138.90978958 83.71659079 -135.2343204 83.69667697 C-131.39724271 83.6748572 -127.56020515 83.64744896 -123.72315979 83.62062073 C-116.45231693 83.57063946 -109.18145186 83.52572087 -101.91056544 83.48259836 C-93.63497798 83.43327233 -85.35943077 83.37833707 -77.08388221 83.32291877 C-60.0559572 83.20901533 -43.02799539 83.10293519 -26 83 C-26 64.85 -26 46.7 -26 28 C-71.21 28 -116.42 28 -163 28 C-163 20.08 -163 12.16 -163 4 C-109.21 4 -55.42 4 0 4 C0.33 27.1 0.66 50.2 1 74 C19.81 74.33 38.62 74.66 58 75 C56.53202758 70.10993427 56.53202758 70.10993427 53.75 68.25 C51.16717302 66.13677793 49.94609164 64.57737024 48.1875 61.8125 C45.51340331 57.63081308 42.49931441 54.05767256 39.15234375 50.40234375 C35.99001077 46.87269805 33.0431823 43.1761247 30.078125 39.48046875 C28.05206168 36.98755639 28.05206168 36.98755639 25.8203125 34.82421875 C24 33 24 33 22.625 30.625 C20.87936032 27.80512052 18.92927759 25.85183779 16.5 23.625 C15 22 15 22 13.59375 19.625 C11.83521113 16.72858303 9.81548397 14.46984957 7.5 12 C0 4 0 4 0 0 Z M-162 5 C-162 12.26 -162 19.52 -162 27 C-160.30284348 27.01030746 -158.60568695 27.02061493 -156.85710144 27.03123474 C-140.89097974 27.12883898 -124.9248982 27.23150192 -108.95884228 27.33933926 C-100.74983841 27.39465372 -92.5408302 27.44813281 -84.33178711 27.49731445 C-77.17808025 27.54017804 -70.02440515 27.58646155 -62.87074739 27.63687855 C-59.08178699 27.66346195 -55.29283283 27.6883146 -51.50383568 27.70907402 C-47.93915879 27.7286584 -44.37454227 27.75280758 -40.80991936 27.78049088 C-38.87463289 27.79432265 -36.93931354 27.80328475 -35.0039978 27.81211853 C-33.28132439 27.82680176 -33.28132439 27.82680176 -31.52384949 27.84178162 C-30.02363141 27.85146044 -30.02363141 27.85146044 -28.49310589 27.8613348 C-26 28 -26 28 -23 29 C-23 47.15 -23 65.3 -23 84 C-26.10237979 85.0341266 -28.2700315 85.13722601 -31.52384949 85.15821838 C-32.66991008 85.16799241 -33.81597067 85.17776644 -34.99676037 85.18783665 C-36.26006333 85.1936069 -37.5233663 85.19937716 -38.82495117 85.20532227 C-40.18699347 85.21503773 -41.54903276 85.22518321 -42.91106892 85.23572445 C-46.56150512 85.26278685 -50.21195335 85.28395665 -53.86243439 85.30391693 C-57.28677419 85.32353032 -60.71106737 85.34844315 -64.13537598 85.3729248 C-74.1527156 85.44144829 -84.17011203 85.50145246 -94.1875 85.5625 C-116.565625 85.706875 -138.94375 85.85125 -162 86 C-162 150.02 -162 214.04 -162 280 C-89.73 280 -17.46 280 57 280 C57 213.01 57 146.02 57 77 C37.53 77 18.06 77 -2 77 C-2 53.24 -2 29.48 -2 5 C-54.8 5 -107.6 5 -162 5 Z " fill="#665300" transform="translate(193,3)"/>
<path d="M0 0 C0.66 0 1.32 0 2 0 C3.35135503 1.53270571 4.63253887 3.12776773 5.875 4.75 C8.42375311 8.06434815 11.0400474 11.05269677 14 14 C14.680625 15.175625 14.680625 15.175625 15.375 16.375 C17.12063968 19.19487948 19.07072241 21.14816221 21.5 23.375 C23 25 23 25 24.38671875 27.35546875 C26.23225236 30.38071391 28.38366257 32.73442525 30.8125 35.3125 C34.37557307 39.16041177 37.63153295 43.0434892 40.6953125 47.29296875 C42.13145466 49.25007763 42.13145466 49.25007763 44.6875 51.6875 C47.35495035 54.35495035 50 57.06865804 50 61 C50.598125 61.268125 51.19625 61.53625 51.8125 61.8125 C54.04237457 63.02300334 55.45490692 63.991379 57 66 C57 67.32 57 68.64 57 70 C38.19 70 19.38 70 0 70 C0 46.9 0 23.8 0 0 Z " fill="#FCCA00" transform="translate(194,8)"/>
<path d="M0 0 C13.86 0 27.72 0 42 0 C42 10.56 42 21.12 42 32 C28.14 32 14.28 32 0 32 C0 21.44 0 10.88 0 0 Z " fill="#050400" transform="translate(69,127)"/>
<path d="M0 0 C18.81 0 37.62 0 57 0 C57 15.51 57 31.02 57 47 C38.19 47 19.38 47 0 47 C0 31.49 0 15.98 0 0 Z M7 7 C7 17.56 7 28.12 7 39 C20.86 39 34.72 39 49 39 C49 28.44 49 17.88 49 7 C35.14 7 21.28 7 7 7 Z " fill="#D9B500" transform="translate(62,120)"/>
<path d="M0 0 C1.31253754 -0.00281982 2.62507507 -0.00563965 3.97738647 -0.00854492 C5.44561781 -0.00660032 6.91384901 -0.00455213 8.38208008 -0.00241089 C9.91753175 -0.00376486 11.45298311 -0.00554477 12.98843384 -0.00772095 C17.17013463 -0.01229573 21.35181087 -0.01050554 25.53351212 -0.00734186 C29.89994627 -0.00481849 34.26637826 -0.00715573 38.6328125 -0.00872803 C45.96688211 -0.01054979 53.30094168 -0.00814324 60.63500977 -0.00338745 C69.12660751 0.00205518 77.61818124 0.00029253 86.1097784 -0.00521386 C93.38703842 -0.00974479 100.66429119 -0.01039563 107.94155216 -0.00777519 C112.29383297 -0.00621231 116.64610248 -0.00601895 120.99838257 -0.00931168 C125.08915715 -0.01219011 129.17990064 -0.01021521 133.27067184 -0.00441742 C134.77638065 -0.00308967 136.28209205 -0.00348419 137.78779984 -0.00568008 C139.83460652 -0.00839098 141.8814189 -0.0043973 143.92822266 0 C145.07639969 0.00037703 146.22457672 0.00075405 147.407547 0.0011425 C149.96411133 0.12698364 149.96411133 0.12698364 150.96411133 1.12698364 C151.08911133 3.62698364 151.08911133 3.62698364 150.96411133 6.12698364 C149.15361216 7.93748281 146.36488068 7.25316716 143.92822266 7.25396729 C142.61568512 7.25678711 141.30314758 7.25960693 139.95083618 7.26251221 C138.48260484 7.26056761 137.01437364 7.25851942 135.54614258 7.25637817 C134.0106909 7.25773215 132.47523955 7.25951206 130.93978882 7.26168823 C126.75808802 7.26626302 122.57641179 7.26447282 118.39471054 7.26130915 C114.02827638 7.25878578 109.66184439 7.26112302 105.29541016 7.26269531 C97.96134054 7.26451708 90.62728098 7.26211052 83.29321289 7.25735474 C74.80161515 7.2519121 66.31004141 7.25367475 57.81844425 7.25918114 C50.54118424 7.26371208 43.26393147 7.26436292 35.98667049 7.26174247 C31.63438969 7.26017959 27.28212018 7.25998623 22.92984009 7.26327896 C18.83906551 7.2661574 14.74832202 7.2641825 10.65755081 7.2583847 C9.15184201 7.25705696 7.64613061 7.25745147 6.14042282 7.25964737 C4.09361613 7.26235827 2.04680376 7.25836459 0 7.25396729 C-1.14817703 7.25359026 -2.29635406 7.25321323 -3.47932434 7.25282478 C-6.03588867 7.12698364 -6.03588867 7.12698364 -7.03588867 6.12698364 C-7.16088867 3.62698364 -7.16088867 3.62698364 -7.03588867 1.12698364 C-5.2253895 -0.68351553 -2.43665802 0.00080012 0 0 Z " fill="#DDBB00" transform="translate(68.035888671875,240.87301635742188)"/>
<path d="M0 0 C55.11 0 110.22 0 167 0 C168.90793967 4.76984918 169.22598893 6.93840564 169.13525391 11.90161133 C169.12106163 12.91220108 169.12106163 12.91220108 169.10658264 13.94320679 C169.07307014 16.15643437 169.02491149 18.3690823 168.9765625 20.58203125 C168.95037825 22.12186699 168.92511262 23.6617186 168.90072632 25.20158386 C168.83424293 29.24429491 168.75531441 33.28667006 168.67376709 37.32910156 C168.59268294 41.45820271 168.52340511 45.58750021 168.453125 49.71679688 C168.31361899 57.81143628 168.16096109 65.90575893 168 74 C167.67 74 167.34 74 167 74 C167 50.9 167 27.8 167 4 C113.21 4 59.42 4 4 4 C4 11.92 4 19.84 4 28 C-3.25894673 32.83929782 -13.28406601 30.62104635 -22 31 C-22 48.16 -22 65.32 -22 83 C-14.74 83 -7.48 83 0 83 C1 84 1 84 1.0625 86.5625 C1.041875 87.366875 1.02125 88.17125 1 89 C0.67 88.01 0.34 87.02 0 86 C-0.62044189 86.01047363 -1.24088379 86.02094727 -1.88012695 86.03173828 C-4.69087677 86.07330886 -7.5015619 86.09932933 -10.3125 86.125 C-11.28896484 86.14175781 -12.26542969 86.15851563 -13.27148438 86.17578125 C-14.20927734 86.18222656 -15.14707031 86.18867187 -16.11328125 86.1953125 C-16.97735596 86.20578613 -17.84143066 86.21625977 -18.73168945 86.22705078 C-21 86 -21 86 -24 84 C-24.38095093 81.68493652 -24.38095093 81.68493652 -24.38818359 78.75585938 C-24.39764008 77.66132446 -24.40709656 76.56678955 -24.4168396 75.43908691 C-24.41076691 74.25262573 -24.40469421 73.06616455 -24.3984375 71.84375 C-24.40130768 70.63054077 -24.40417786 69.41733154 -24.40713501 68.1673584 C-24.40917952 65.59838393 -24.40362281 63.02939404 -24.39111328 60.46044922 C-24.37506611 56.51624925 -24.39095004 52.57307415 -24.41015625 48.62890625 C-24.40817389 46.13801856 -24.40433036 43.64713151 -24.3984375 41.15625 C-24.40451019 39.96978882 -24.41058289 38.78332764 -24.4168396 37.56091309 C-24.40738312 36.46637817 -24.39792664 35.37184326 -24.38818359 34.24414062 C-24.38579681 33.27754517 -24.38341003 32.31094971 -24.38095093 31.31506348 C-24.25523712 30.55109253 -24.12952332 29.78712158 -24 29 C-20.74610012 26.83073341 -19.86604043 26.75919951 -16.11328125 26.8046875 C-15.26805908 26.80968262 -14.42283691 26.81467773 -13.55200195 26.81982422 C-12.48296631 26.83803223 -11.41393066 26.85624023 -10.3125 26.875 C-5.2078125 26.936875 -5.2078125 26.936875 0 27 C0 18.09 0 9.18 0 0 Z " fill="#AB8C00" transform="translate(26,3)"/>
<path d="M0 0 C11.06534858 -0.02312283 22.13069145 -0.04091478 33.19605923 -0.05181217 C38.33359566 -0.05704113 43.47111563 -0.06413901 48.60864258 -0.07543945 C53.5623141 -0.08626787 58.51596974 -0.09227674 63.46965218 -0.09487724 C65.36397616 -0.09673157 67.25829924 -0.10035234 69.1526165 -0.10573006 C71.79634386 -0.11293989 74.44000471 -0.11399097 77.08374023 -0.11352539 C77.87495773 -0.11712067 78.66617523 -0.12071594 79.48136902 -0.12442017 C84.88594784 -0.11405216 84.88594784 -0.11405216 86 1 C86.0979057 2.49738124 86.12974864 3.99942892 86.125 5.5 C86.12886719 6.72203125 86.12886719 6.72203125 86.1328125 7.96875 C86 10 86 10 85 11 C82.35261911 11.09511266 79.73140999 11.12555635 77.08374023 11.11352539 C76.25454071 11.11367142 75.42534119 11.11381744 74.5710144 11.1139679 C71.81684802 11.11326851 69.06274839 11.10547493 66.30859375 11.09765625 C64.40430234 11.09579216 62.50001045 11.09436822 60.59571838 11.09336853 C55.57332037 11.08954263 50.55095108 11.07971173 45.52856445 11.06866455 C40.4077188 11.05845198 35.28686852 11.05387124 30.16601562 11.04882812 C20.11066443 11.03808953 10.0553346 11.02101224 0 11 C-0.19491452 9.54263913 -0.38069358 8.08405407 -0.5625 6.625 C-0.66691406 5.81289062 -0.77132812 5.00078125 -0.87890625 4.1640625 C-1 2 -1 2 0 0 Z " fill="#564400" transform="translate(135,117)"/>
<path d="M0 0 C51.81 0 103.62 0 157 0 C157 1.98 157 3.96 157 6 C105.19 6 53.38 6 0 6 C0 4.02 0 2.04 0 0 Z " fill="#F0CB00" transform="translate(62,201)"/>
<path d="M0 0 C0.33 0 0.66 0 1 0 C1 16.83 1 33.66 1 51 C8.26 51 15.52 51 23 51 C26.28105499 54.28105499 26.34933667 55.15450572 26.38724393 59.56952065 C26.37413614 60.71202451 26.37413614 60.71202451 26.36076355 61.87760925 C26.36332682 62.68871589 26.3658901 63.49982254 26.36853105 64.33550817 C26.3734859 67.06265797 26.35694818 69.78925833 26.34057617 72.51635742 C26.33973027 74.4675139 26.34020433 76.41867134 26.34190369 78.36982727 C26.34276649 83.67534871 26.32509459 88.98066781 26.30418181 94.28614211 C26.28546249 99.82749523 26.28366832 105.36885269 26.28010559 110.91023254 C26.27077116 121.40747022 26.24613846 131.90461446 26.21605712 142.40181094 C26.1825566 154.35085406 26.16603805 166.29990156 26.15097082 178.24897993 C26.11959013 202.83270514 26.06680247 227.41634734 26 252 C24.68 251.67 23.36 251.34 22 251 C22 185.66 22 120.32 22 53 C14.74 52.67 7.48 52.34 0 52 C0 34.84 0 17.68 0 0 Z " fill="#D2AD00" transform="translate(4,34)"/>
<path d="M0 0 C27.39 0 54.78 0 83 0 C83 1.98 83 3.96 83 6 C55.61 6 28.22 6 0 6 C0 4.02 0 2.04 0 0 Z " fill="#E4C500" transform="translate(136,160)"/>
<path d="M0 0 C1.75739832 0.00138269 1.75739832 0.00138269 3.55029964 0.00279331 C4.20043889 0.00193889 4.85057814 0.00108446 5.52041858 0.00020415 C7.71464604 -0.00145243 9.90879826 0.00407358 12.10301876 0.00952244 C13.66964879 0.0098043 15.23627895 0.0096466 16.8029089 0.00907993 C21.06925401 0.00879191 25.33557126 0.0146894 29.60190988 0.02165389 C34.05556076 0.02788665 38.50921221 0.02849116 42.96286678 0.0296793 C51.40246468 0.03279285 59.84204969 0.04100655 68.2816419 0.05102879 C77.88728468 0.0621892 87.49292806 0.06770019 97.09857571 0.07272422 C116.86365443 0.08318914 136.62872153 0.10078904 156.39379025 0.12304783 C156.39379025 3.42304783 156.39379025 6.72304783 156.39379025 10.12304783 C103.92379025 10.12304783 51.45379025 10.12304783 -2.60620975 10.12304783 C-2.93620975 7.15304783 -3.26620975 4.18304783 -3.60620975 1.12304783 C-2.60620975 0.12304783 -2.60620975 0.12304783 0 0 Z M-2.60620975 2.12304783 C-2.77287642 4.62304783 -2.77287642 4.62304783 -2.60620975 7.12304783 C-0.79571058 8.933547 1.9930209 8.24923135 4.42967892 8.25003147 C5.74221645 8.2528513 7.05475399 8.25567112 8.40706539 8.25857639 C9.87529673 8.25663179 11.34352793 8.2545836 12.811759 8.25244236 C14.34721067 8.25379634 15.88266202 8.25557625 17.41811275 8.25775242 C21.59981355 8.2623272 25.78148979 8.26053701 29.96319103 8.25737333 C34.32962519 8.25484996 38.69605718 8.2571872 43.06249142 8.2587595 C50.39656103 8.26058126 57.73062059 8.25817471 65.06468868 8.25341892 C73.55628642 8.24797629 82.04786016 8.24973894 90.53945732 8.25524533 C97.81671734 8.25977627 105.09397011 8.2604271 112.37123108 8.25780666 C116.72351189 8.25624378 121.07578139 8.25605042 125.42806149 8.25934315 C129.51883607 8.26222158 133.60957956 8.26024668 137.70035076 8.25444889 C139.20605957 8.25312114 140.71177096 8.25351566 142.21747875 8.25571156 C144.26428544 8.25842245 146.31109781 8.25442878 148.35790157 8.25003147 C149.50607861 8.24965445 150.65425564 8.24927742 151.83722591 8.24888897 C154.32754871 8.41311872 154.32754871 8.41311872 155.39379025 7.12304783 C155.56045691 4.62304783 155.56045691 4.62304783 155.39379025 2.12304783 C153.58329107 0.31254866 150.79455959 0.99686431 148.35790157 0.99606419 C147.04536404 0.99324436 145.7328265 0.99042454 144.3805151 0.98751926 C142.91228376 0.98946387 141.44405256 0.99151205 139.9758215 0.9936533 C138.44036982 0.99229932 136.90491847 0.99051941 135.36946774 0.98834324 C131.18776694 0.98376845 127.0060907 0.98555865 122.82438946 0.98872232 C118.4579553 0.99124569 114.09152331 0.98890845 109.72508907 0.98733616 C102.39101946 0.98551439 95.0569599 0.98792095 87.72289181 0.99267673 C79.23129407 0.99811937 70.73972033 0.99635672 62.24812317 0.99085033 C54.97086315 0.98631939 47.69361038 0.98566856 40.41634941 0.988289 C36.0640686 0.98985188 31.7117991 0.99004524 27.359519 0.98675251 C23.26874442 0.98387407 19.17800093 0.98584897 15.08722973 0.99164677 C13.58152093 0.99297451 12.07580953 0.99258 10.57010174 0.9903841 C8.52329505 0.9876732 6.47648268 0.99166688 4.42967892 0.99606419 C3.28150188 0.99644121 2.13332485 0.99681824 0.95035458 0.99720669 C-1.53996822 0.83297694 -1.53996822 0.83297694 -2.60620975 2.12304783 Z " fill="#3D2F00" transform="translate(63.60620975494385,239.87695217132568)"/>
<path d="M0 0 C1.75739832 0.00138269 1.75739832 0.00138269 3.55029964 0.00279331 C4.20043889 0.00193889 4.85057814 0.00108446 5.52041858 0.00020415 C7.71464604 -0.00145243 9.90879826 0.00407358 12.10301876 0.00952244 C13.66964879 0.0098043 15.23627895 0.0096466 16.8029089 0.00907993 C21.06925401 0.00879191 25.33557126 0.0146894 29.60190988 0.02165389 C34.05556076 0.02788665 38.50921221 0.02849116 42.96286678 0.0296793 C51.40246468 0.03279285 59.84204969 0.04100655 68.2816419 0.05102879 C77.88728468 0.0621892 87.49292806 0.06770019 97.09857571 0.07272422 C116.86365443 0.08318914 136.62872153 0.10078904 156.39379025 0.12304783 C156.39379025 2.76304783 156.39379025 5.40304783 156.39379025 8.12304783 C156.06379025 8.12304783 155.73379025 8.12304783 155.39379025 8.12304783 C155.39379025 6.14304783 155.39379025 4.16304783 155.39379025 2.12304783 C103.58379025 2.12304783 51.77379025 2.12304783 -1.60620975 2.12304783 C-1.60620975 4.10304783 -1.60620975 6.08304783 -1.60620975 8.12304783 C49.87379025 8.12304783 101.35379025 8.12304783 154.39379025 8.12304783 C154.39379025 8.45304783 154.39379025 8.78304783 154.39379025 9.12304783 C133.94080551 9.14637508 113.48782345 9.16402615 93.03482819 9.17486 C83.53883641 9.18002333 74.04285289 9.18706672 64.54686642 9.19848728 C56.27326179 9.208433 47.99966314 9.21490099 39.7260527 9.21713632 C35.34245435 9.21844362 30.95887308 9.22153067 26.57528019 9.22877789 C22.45415524 9.23553634 18.33305452 9.23766515 14.21192455 9.23615551 C12.69492683 9.23643192 11.17792835 9.23843808 9.6609354 9.2422533 C7.59871723 9.24718784 5.53659198 9.24604703 3.47437191 9.24330235 C2.31752172 9.24422414 1.16067152 9.24514593 -0.03123474 9.24609566 C-2.60620975 9.12304783 -2.60620975 9.12304783 -3.60620975 8.12304783 C-3.73120975 4.62304783 -3.73120975 4.62304783 -3.60620975 1.12304783 C-2.60620975 0.12304783 -2.60620975 0.12304783 0 0 Z " fill="#6C5400" transform="translate(63.60620975494385,198.87695217132568)"/>
<path d="M0 0 C27.39 0 54.78 0 83 0 C83 1.65 83 3.3 83 5 C55.61 5 28.22 5 0 5 C0 3.35 0 1.7 0 0 Z " fill="#EDD300" transform="translate(136,120)"/>
<path d="M0 0 C1.10347778 0.00213753 1.10347778 0.00213753 2.22924805 0.00431824 C3.06351318 0.00124161 3.89777832 -0.00183502 4.75732422 -0.00500488 C5.65942627 0.00218063 6.56152832 0.00936615 7.4909668 0.01676941 C8.87795776 0.01745674 8.87795776 0.01745674 10.29296875 0.01815796 C12.24993166 0.02118191 14.20689212 0.02907247 16.16381836 0.04142761 C19.16618336 0.05966355 22.16823975 0.06193746 25.1706543 0.06169128 C27.06909447 0.06660719 28.96753255 0.07243582 30.8659668 0.07926941 C31.76806885 0.08038223 32.6701709 0.08149506 33.59960938 0.0826416 C34.43387451 0.08902145 35.26813965 0.09540131 36.12768555 0.10197449 C36.8633374 0.10578629 37.59898926 0.10959808 38.35693359 0.11352539 C40.1784668 0.24723816 40.1784668 0.24723816 42.1784668 1.24723816 C42.22790145 6.03441358 42.26420262 10.82144043 42.28833008 15.60881042 C42.29838822 17.23741748 42.31203638 18.86600648 42.3293457 20.49455261 C42.35360253 22.83533688 42.36495163 25.1758824 42.3737793 27.51676941 C42.38410187 28.24499405 42.39442444 28.97321869 42.40505981 29.72351074 C42.40588929 33.45998885 42.30729975 35.05398872 40.1784668 38.24723816 C38.26754761 38.60800171 38.26754761 38.60800171 35.91235352 38.58781433 C35.03159149 38.58758774 34.15082947 38.58736115 33.24337769 38.58712769 C32.29125397 38.57164383 31.33913025 38.55615997 30.3581543 38.54020691 C29.38435822 38.53596207 28.41056213 38.53171722 27.40725708 38.52734375 C24.28904875 38.51051602 21.17148063 38.47285627 18.0534668 38.43473816 C15.94279903 38.41969662 13.83212116 38.40600729 11.72143555 38.39372253 C6.54022657 38.36059925 1.35939241 38.31035967 -3.8215332 38.24723816 C-3.87089478 33.15692061 -3.90723425 28.06674173 -3.93139648 22.97624207 C-3.94146696 21.24379551 -3.95512409 19.511366 -3.97241211 17.77897644 C-3.99661482 15.29179177 -4.00800559 12.80483141 -4.0168457 10.31755066 C-4.02716827 9.54041718 -4.03749084 8.76328369 -4.04812622 7.96260071 C-4.04852591 6.05598323 -3.9438546 4.1499278 -3.8215332 2.24723816 C-1.8215332 0.24723816 -1.8215332 0.24723816 0 0 Z M-1.8215332 3.24723816 C-1.8215332 13.80723816 -1.8215332 24.36723816 -1.8215332 35.24723816 C12.0384668 35.24723816 25.8984668 35.24723816 40.1784668 35.24723816 C40.1784668 24.68723816 40.1784668 14.12723816 40.1784668 3.24723816 C26.3184668 3.24723816 12.4584668 3.24723816 -1.8215332 3.24723816 Z " fill="#A98900" transform="translate(70.821533203125,123.75276184082031)"/>
<path d="M0 0 C2.0546875 1.890625 2.0546875 1.890625 3.875 4.25 C4.79925781 5.40242188 4.79925781 5.40242188 5.7421875 6.578125 C7 9 7 9 6.90625 11.625 C5.86970243 14.34146949 5.03530714 15.18380886 2.625 16.75 C2.01914063 17.15734375 1.41328125 17.5646875 0.7890625 17.984375 C-2.28987538 19.73224367 -5.0210622 20.20233364 -8.5 20.3125 C-9.2734375 20.34988281 -10.046875 20.38726562 -10.84375 20.42578125 C-13 20 -13 20 -14.69921875 18.29296875 C-16.09701206 15.82899075 -16.75864133 13.77352128 -17.3125 11 C-17.49425781 10.154375 -17.67601562 9.30875 -17.86328125 8.4375 C-18.02628531 5.53137042 -17.76751428 4.31484115 -16 2 C-13.57421875 0.91796875 -13.57421875 0.91796875 -10.6875 0.1875 C-9.74261719 -0.06644531 -8.79773437 -0.32039063 -7.82421875 -0.58203125 C-4.76459153 -1.03483915 -2.91629957 -1.02619379 0 0 Z " fill="#FFFFFF" transform="translate(1057,96)"/>
<path d="M0 0 C2.0546875 1.890625 2.0546875 1.890625 3.875 4.25 C4.79925781 5.40242188 4.79925781 5.40242188 5.7421875 6.578125 C7 9 7 9 6.90625 11.625 C5.86970243 14.34146949 5.03530714 15.18380886 2.625 16.75 C2.01914062 17.15734375 1.41328125 17.5646875 0.7890625 17.984375 C-2.28987538 19.73224367 -5.0210622 20.20233364 -8.5 20.3125 C-9.2734375 20.34988281 -10.046875 20.38726562 -10.84375 20.42578125 C-13 20 -13 20 -14.69921875 18.29296875 C-16.09701206 15.82899075 -16.75864133 13.77352128 -17.3125 11 C-17.49425781 10.154375 -17.67601562 9.30875 -17.86328125 8.4375 C-18.02628531 5.53137042 -17.76751428 4.31484115 -16 2 C-13.57421875 0.91796875 -13.57421875 0.91796875 -10.6875 0.1875 C-9.74261719 -0.06644531 -8.79773438 -0.32039063 -7.82421875 -0.58203125 C-4.76459153 -1.03483915 -2.91629957 -1.02619379 0 0 Z " fill="#FFAB00" transform="translate(549,96)"/>
<path d="M0 0 C19.14 0 38.28 0 58 0 C59.19791173 2.39582346 59.1206744 3.86777538 59.11352539 6.54150391 C59.11344986 7.48232819 59.11337433 8.42315247 59.11329651 9.39248657 C59.10813522 10.41023163 59.10297394 11.42797668 59.09765625 12.4765625 C59.0962413 13.51694672 59.09482635 14.55733093 59.09336853 15.62924194 C59.08775866 18.96119021 59.07520447 22.29307195 59.0625 25.625 C59.05748627 27.88020736 59.05292314 30.13541578 59.04882812 32.390625 C59.03778603 37.92710614 59.02103827 43.46354832 59 49 C58.67 49 58.34 49 58 49 C58 33.82 58 18.64 58 3 C39.19 3 20.38 3 1 3 C1 18.51 1 34.02 1 50 C19.48 50 37.96 50 57 50 C57 50.33 57 50.66 57 51 C38.19 51 19.38 51 0 51 C-1.19225915 48.6154817 -1.12682707 47.15090784 -1.12939453 44.49023438 C-1.13254669 43.55586548 -1.13569885 42.62149658 -1.13894653 41.65881348 C-1.1369223 40.64734253 -1.13489807 39.63587158 -1.1328125 38.59375 C-1.13376923 37.55810913 -1.13472595 36.52246826 -1.13571167 35.45544434 C-1.13639298 33.2631016 -1.13454209 31.07075685 -1.13037109 28.87841797 C-1.12502218 25.5139515 -1.13031775 22.14961854 -1.13671875 18.78515625 C-1.13605796 16.65885387 -1.13477678 14.53255157 -1.1328125 12.40625 C-1.13483673 11.39477905 -1.13686096 10.38330811 -1.13894653 9.34118652 C-1.13579437 8.40681763 -1.13264221 7.47244873 -1.12939453 6.50976562 C-1.12859894 5.68528931 -1.12780334 4.86081299 -1.12698364 4.01135254 C-1 2 -1 2 0 0 Z " fill="#463700" transform="translate(61,117)"/>
<path d="M0 0 C17.49 0 34.98 0 53 0 C53 0.33 53 0.66 53 1 C47.73375405 2.06238918 42.61079287 2.19916032 37.26171875 2.28125 C35.87965996 2.30886414 35.87965996 2.30886414 34.46968079 2.33703613 C30.54329638 2.41547847 26.61675521 2.48380218 22.69018555 2.55224609 C19.8181056 2.60379079 16.94618091 2.66106747 14.07421875 2.71875 C13.17950363 2.73232544 12.28478851 2.74590088 11.36296082 2.7598877 C7.36041481 2.44429843 7.36041481 2.44429843 4 4 C3.83997899 6.66403582 3.74049495 9.30581257 3.68359375 11.97265625 C3.66494263 12.67934448 3.6462915 13.38603271 3.6270752 14.11413574 C3.55858389 16.76345879 3.49855902 19.41299524 3.4375 22.0625 C3.293125 27.981875 3.14875 33.90125 3 40 C19.17 40 35.34 40 52 40 C52.33 40.99 52.66 41.98 53 43 C35.51 43 18.02 43 0 43 C0 28.81 0 14.62 0 0 Z " fill="#FEE500" transform="translate(64,122)"/>
<path d="M0 0 C0.78964645 0.00202423 1.57929291 0.00404846 2.39286804 0.00613403 C3.63425789 0.00350555 3.63425789 0.00350555 4.90072632 0.00082397 C7.65008104 -0.00359537 10.39937199 -0.00065627 13.14872742 0.00271606 C15.0506237 0.00204305 16.9525199 0.00107304 18.85441589 -0.00018311 C22.84591997 -0.00166019 26.83740171 0.00049482 30.8289032 0.00515747 C35.95738248 0.01085476 41.08580944 0.00757582 46.2142868 0.00158501 C50.14321795 -0.00202032 54.0721366 -0.00088215 58.00106812 0.0017128 C59.89259853 0.00238215 61.78413007 0.00155338 63.67565918 -0.00076675 C66.31449918 -0.00329282 68.95325323 0.00054665 71.59208679 0.00613403 C72.77655647 0.00309769 72.77655647 0.00309769 73.98495483 0 C79.3782149 0.02126605 79.3782149 0.02126605 80.49247742 1.13552856 C80.74247742 4.57302856 80.74247742 4.57302856 80.49247742 8.13552856 C76.75650046 10.62617987 73.87130119 10.41025358 69.54862976 10.37844849 C68.74025162 10.38034683 67.93187347 10.38224518 67.09899902 10.38420105 C64.42537254 10.38790775 61.75201728 10.37720771 59.07841492 10.36599731 C57.22421806 10.36480553 55.37002059 10.36435235 53.51582336 10.36460876 C49.63039876 10.36304418 45.74506634 10.35475513 41.85966492 10.34133911 C36.86799838 10.32432566 31.87643296 10.32052545 26.88474083 10.32128429 C23.05703254 10.32101302 19.22934655 10.31553906 15.40164566 10.30828285 C13.56035659 10.3050911 11.71906498 10.3031276 9.87777328 10.30238914 C7.31098325 10.30023226 4.74430271 10.29150295 2.17753601 10.28079224 C1.02583168 10.28147202 1.02583168 10.28147202 -0.1491394 10.28216553 C-5.39304658 10.25000457 -5.39304658 10.25000457 -6.50752258 9.13552856 C-6.64033508 7.32302856 -6.64033508 7.32302856 -6.63252258 5.13552856 C-6.63510071 4.41365356 -6.63767883 3.69177856 -6.64033508 2.94802856 C-6.34686405 -1.05698788 -3.31913622 0.01308762 0 0 Z M-4.50752258 2.13552856 C-4.50752258 4.11552856 -4.50752258 6.09552856 -4.50752258 8.13552856 C22.88247742 8.13552856 50.27247742 8.13552856 78.49247742 8.13552856 C78.49247742 6.15552856 78.49247742 4.17552856 78.49247742 2.13552856 C51.10247742 2.13552856 23.71247742 2.13552856 -4.50752258 2.13552856 Z " fill="#503F02" transform="translate(140.5075225830078,157.86447143554688)"/>
<path d="M0 0 C0.99 0.495 0.99 0.495 2 1 C2 21.46 2 41.92 2 63 C24.77 62.505 24.77 62.505 48 62 C48.495 61.01 48.495 61.01 49 60 C51.4375 60.75 51.4375 60.75 54 62 C54.495 63.98 54.495 63.98 55 66 C36.85 66 18.7 66 0 66 C0 44.22 0 22.44 0 0 Z " fill="#FDD800" transform="translate(195,11)"/>
<path d="M0 0 C0.33 0 0.66 0 1 0 C1 1.65 1 3.3 1 5 C-6.59 5.33 -14.18 5.66 -22 6 C-22 23.16 -22 40.32 -22 58 C-14.74 58 -7.48 58 0 58 C1 59 1 59 1.0625 61.5625 C1.041875 62.366875 1.02125 63.17125 1 64 C0.67 63.01 0.34 62.02 0 61 C-0.62044189 61.01047363 -1.24088379 61.02094727 -1.88012695 61.03173828 C-4.69087677 61.07330886 -7.5015619 61.09932933 -10.3125 61.125 C-11.28896484 61.14175781 -12.26542969 61.15851563 -13.27148438 61.17578125 C-14.20927734 61.18222656 -15.14707031 61.18867187 -16.11328125 61.1953125 C-16.97735596 61.20578613 -17.84143066 61.21625977 -18.73168945 61.22705078 C-21 61 -21 61 -24 59 C-24.38095093 56.68493652 -24.38095093 56.68493652 -24.38818359 53.75585938 C-24.39764008 52.66132446 -24.40709656 51.56678955 -24.4168396 50.43908691 C-24.41076691 49.25262573 -24.40469421 48.06616455 -24.3984375 46.84375 C-24.40130768 45.63054077 -24.40417786 44.41733154 -24.40713501 43.1673584 C-24.40917952 40.59838393 -24.40362281 38.02939404 -24.39111328 35.46044922 C-24.37506611 31.51624925 -24.39095004 27.57307415 -24.41015625 23.62890625 C-24.40817389 21.13801856 -24.40433036 18.64713151 -24.3984375 16.15625 C-24.40451019 14.96978882 -24.41058289 13.78332764 -24.4168396 12.56091309 C-24.40738312 11.46637817 -24.39792664 10.37184326 -24.38818359 9.24414062 C-24.38579681 8.27754517 -24.38341003 7.31094971 -24.38095093 6.31506348 C-24.25523712 5.55109253 -24.12952332 4.78712158 -24 4 C-20.74610012 1.83073341 -19.86604043 1.75919951 -16.11328125 1.8046875 C-14.7065918 1.81435547 -14.7065918 1.81435547 -13.27148438 1.82421875 C-11.80678711 1.84935547 -11.80678711 1.84935547 -10.3125 1.875 C-9.32443359 1.88402344 -8.33636719 1.89304687 -7.31835938 1.90234375 C-4.87866235 1.9259157 -2.43945303 1.95881978 0 2 C0 1.34 0 0.68 0 0 Z " fill="#856A00" transform="translate(26,28)"/>
<path d="M0 0 C3 1 3 1 4 2.9375 C4.33 3.618125 4.66 4.29875 5 5 C5.99 5.66 6.98 6.32 8 7 C8.33 7.99 8.66 8.98 9 10 C9.515625 10.515625 10.03125 11.03125 10.5625 11.5625 C11.036875 12.036875 11.51125 12.51125 12 13 C12 13.66 12 14.32 12 15 C12.639375 15.268125 13.27875 15.53625 13.9375 15.8125 C16 17 16 17 17 20 C17.66 20 18.32 20 19 20 C19.556875 21.051875 20.11375 22.10375 20.6875 23.1875 C22.66171156 26.68305739 25.12018103 29.200176 28 32 C28 32.66 28 33.32 28 34 C28.66 34 29.32 34 30 34 C30.66 35.65 31.32 37.3 32 39 C32.66 39 33.32 39 34 39 C36.625 41.375 36.625 41.375 39 44 C39 44.66 39 45.32 39 46 C39.66 46 40.32 46 41 46 C41 47.32 41 48.64 41 50 C41.66 50 42.32 50 43 50 C43 50.99 43 51.98 43 53 C43.99 53.33 44.98 53.66 46 54 C46 54.66 46 55.32 46 56 C46.66 56 47.32 56 48 56 C48 56.66 48 57.32 48 58 C48.66 58 49.32 58 50 58 C52.29648649 60.5614657 53 61.47967572 53 65 C53.66 65 54.32 65 55 65 C55 65.66 55 66.32 55 67 C55.66 67 56.32 67 57 67 C58.625 68.375 58.625 68.375 60 70 C60 70.66 60 71.32 60 72 C53.620861 69.16482711 50.32555963 65.15594529 46.65625 59.41796875 C44.41914333 56.15200406 41.82186232 53.31780645 39.15234375 50.40234375 C35.99001077 46.87269805 33.0431823 43.1761247 30.078125 39.48046875 C28.05206168 36.98755639 28.05206168 36.98755639 25.8203125 34.82421875 C24 33 24 33 22.625 30.625 C20.87936032 27.80512052 18.92927759 25.85183779 16.5 23.625 C15 22 15 22 13.59375 19.625 C11.83521113 16.72858303 9.81548397 14.46984957 7.5 12 C0 4 0 4 0 0 Z " fill="#554300" transform="translate(193,3)"/>
<path d="M0 0 C0.66 0 1.32 0 2 0 C3.7265625 1.8984375 3.7265625 1.8984375 5.625 4.375 C6.25664062 5.18710938 6.88828125 5.99921875 7.5390625 6.8359375 C9 9 9 9 9 11 C7.35 10.67 5.7 10.34 4 10 C3.67 10.66 3.34 11.32 3 12 C2.67 9.36 2.34 6.72 2 4 C1.67 25.45 1.34 46.9 1 69 C19.15 69 37.3 69 56 69 C55.67 67.68 55.34 66.36 55 65 C55.99 65.495 55.99 65.495 57 66 C57 67.32 57 68.64 57 70 C38.19 70 19.38 70 0 70 C0 46.9 0 23.8 0 0 Z " fill="#E2BC00" transform="translate(194,8)"/>
<path d="M0 0 C0.99 0 1.98 0 3 0 C4.30475618 2.60951236 4.11301572 4.52701285 4.09765625 7.4453125 C4.09443359 8.52167969 4.09121094 9.59804687 4.08789062 10.70703125 C4.07951172 11.83496094 4.07113281 12.96289062 4.0625 14.125 C4.05798828 15.26066406 4.05347656 16.39632813 4.04882812 17.56640625 C4.03701615 20.37765638 4.02054507 23.1888023 4 26 C3.01 26.33 2.02 26.66 1 27 C0.04623433 23.79217914 -0.11621181 20.91812604 -0.09765625 17.578125 C-0.09443359 16.55332031 -0.09121094 15.52851563 -0.08789062 14.47265625 C-0.07951172 13.40917969 -0.07113281 12.34570312 -0.0625 11.25 C-0.05798828 10.17105469 -0.05347656 9.09210937 -0.04882812 7.98046875 C-0.03705727 5.32025617 -0.02061399 2.66015635 0 0 Z " fill="#C7A400" transform="translate(26,5)"/>
<path d="M0 0 C5.66153846 2.33846154 5.66153846 2.33846154 7.375 5.6875 C7.684375 6.8321875 7.684375 6.8321875 8 8 C8.66 8 9.32 8 10 8 C10.33 9.65 10.66 11.3 11 13 C6.74418856 9.87072688 3.0800315 6.29722607 0 2 C0 1.34 0 0.68 0 0 Z " fill="#675200" transform="translate(217,34)"/>
<path d="M0 0 C0.33 0.66 0.66 1.32 1 2 C1.66 2 2.32 2 3 2 C3.556875 3.051875 4.11375 4.10375 4.6875 5.1875 C6.7017636 8.73953473 8.9990584 11.24913686 12 14 C11.67 14.66 11.34 15.32 11 16 C9.53548421 14.58972554 8.0786107 13.17151204 6.625 11.75 C5.81289062 10.96109375 5.00078125 10.1721875 4.1640625 9.359375 C1.26104331 6.19435047 0 4.31447141 0 0 Z " fill="#3B2F00" transform="translate(209,21)"/>
<path d="M0 0 C3 1 3 1 4 2.9375 C4.33 3.618125 4.66 4.29875 5 5 C5.99 5.66 6.98 6.32 8 7 C8.6875 9.125 8.6875 9.125 9 11 C4.55092795 9.51697598 2.25420608 5.91714499 0 2 C0 1.34 0 0.68 0 0 Z " fill="#4A3B00" transform="translate(193,3)"/>
</svg>
